<svg width="176" height="48" viewBox="0 0 176 48" fill="none" xmlns="http://www.w3.org/2000/svg">
<path d="M170.41 27.8454C170.965 27.5181 171.481 27.1192 171.946 26.6436C172.332 26.2498 172.672 25.8202 172.957 25.36C172.357 25.6975 171.721 25.9634 171.06 26.1527C170.9 26.7408 170.685 27.3084 170.41 27.8505V27.8454Z" fill="#D9D9D9"/>
<path d="M170.82 9.06169C170.129 8.8827 169.418 8.79065 168.703 8.79065C168.292 8.79065 167.882 8.82133 167.481 8.87759C167.762 9.62935 167.952 10.4118 168.052 11.2198C169.093 11.3579 170.094 11.6545 171.035 12.1045C171.135 11.0971 171.07 10.0692 170.815 9.06169H170.82Z" fill="#D9D9D9"/>
<path d="M164.939 7.99835C165.059 7.94721 165.179 7.90119 165.299 7.85516C164.588 6.71474 163.623 5.74307 162.456 5.03223C161.31 5.72262 160.364 6.67382 159.659 7.78356C159.849 7.85005 160.034 7.92164 160.224 7.99835C161.07 8.35122 161.861 8.8166 162.582 9.38425C163.302 8.8166 164.093 8.34611 164.939 7.99835Z" fill="#D9D9D9"/>
<path d="M168.708 26.1784C169.423 26.1784 170.134 26.0864 170.825 25.9074C171.16 24.5624 171.17 23.1816 170.885 21.8673C169.994 22.2764 169.048 22.5475 168.062 22.6753C167.917 23.8515 167.577 24.9715 167.056 26.0199C167.597 26.1273 168.147 26.1835 168.708 26.1835V26.1784Z" fill="#D9D9D9"/>
<path d="M152.867 21.233C152.191 20.8085 151.571 20.3022 151.01 19.7244C150.89 20.2665 150.83 20.8188 150.83 21.3711C150.83 21.683 150.85 21.9899 150.885 22.2967C151.015 22.4552 151.15 22.6036 151.296 22.7519C151.681 23.1456 152.106 23.4934 152.562 23.7849C152.562 22.9206 152.662 22.0666 152.867 21.2279V21.233Z" fill="#D9D9D9"/>
<path d="M160.265 26.9503C160.875 27.6969 161.616 28.3464 162.457 28.8578C163.328 28.331 164.088 27.656 164.714 26.8684C163.953 26.5309 163.238 26.0962 162.582 25.5797C161.876 26.1371 161.095 26.5974 160.265 26.9452V26.9503Z" fill="#D9D9D9"/>
<path d="M159.118 30.3054C160.169 30.8884 161.35 31.1953 162.582 31.1953C163.813 31.1953 164.964 30.8935 166.005 30.3259C164.759 30.2134 163.547 29.8298 162.461 29.1957C161.435 29.7889 160.299 30.1673 159.123 30.3003L159.118 30.3054Z" fill="#D9D9D9"/>
<path d="M156.456 8.79065C155.741 8.79065 155.03 8.8827 154.339 9.06169C154.099 10.0334 154.024 11.0255 154.109 11.9971C154.98 11.6085 155.896 11.3477 156.852 11.2249C156.952 10.4016 157.152 9.60889 157.437 8.85202C157.112 8.81622 156.787 8.79576 156.451 8.79576L156.456 8.79065Z" fill="#D9D9D9"/>
<path d="M153.368 19.7243C153.698 18.9265 154.134 18.1799 154.659 17.4844C153.948 16.5485 153.413 15.5104 153.057 14.3955C152.157 15.0757 151.386 15.9348 150.8 16.9474C151.451 18.0725 152.337 19.0135 153.368 19.7243Z" fill="#D9D9D9"/>
<path d="M154.339 25.9077C155.029 26.0867 155.74 26.1788 156.456 26.1788C156.941 26.1788 157.417 26.1379 157.882 26.056C157.347 24.9974 157.001 23.8621 156.856 22.6706C155.955 22.5529 155.084 22.3177 154.259 21.9597C153.993 23.2433 154.013 24.5934 154.339 25.9026V25.9077Z" fill="#D9D9D9"/>
<path d="M172.051 14.549C171.696 15.6076 171.175 16.5894 170.5 17.4844C170.995 18.139 171.405 18.8447 171.731 19.5914C172.682 18.8959 173.497 18.006 174.108 16.9474C173.567 16.0116 172.862 15.2035 172.051 14.549Z" fill="#D9D9D9"/>
<path d="M166.22 27.4003C165.905 27.8401 165.555 28.2543 165.174 28.643C165.705 28.7657 166.245 28.8271 166.786 28.8271C167.196 28.8271 167.607 28.7913 168.002 28.7248C168.277 28.4128 168.528 28.0753 168.748 27.7224C168.733 27.7224 168.718 27.7224 168.703 27.7224C167.857 27.7224 167.026 27.6151 166.215 27.4054L166.22 27.4003Z" fill="#D9D9D9"/>
<path d="M151.822 25.1301C152.132 25.6773 152.517 26.1836 152.968 26.6439C153.528 27.2166 154.159 27.682 154.85 28.0349C154.534 27.4365 154.279 26.8024 154.104 26.1478C153.298 25.9228 152.532 25.575 151.827 25.1301H151.822Z" fill="#D9D9D9"/>
<path d="M164.149 3.94268C163.638 3.83017 163.113 3.7688 162.582 3.7688C161.997 3.7688 161.426 3.8404 160.871 3.97336C161.421 4.15746 161.952 4.39782 162.457 4.68932C162.993 4.37737 163.563 4.12678 164.149 3.93756V3.94268Z" fill="#D9D9D9"/>
<path d="M172.451 12.9331C172.967 13.2962 173.452 13.7104 173.898 14.1656C174.018 13.6235 174.078 13.0712 174.078 12.5188C174.078 12.4933 174.078 12.4677 174.078 12.4472C174.008 12.3705 173.933 12.2938 173.863 12.2171C173.477 11.8233 173.052 11.4756 172.596 11.1841C172.596 11.7722 172.551 12.3603 172.456 12.9382L172.451 12.9331Z" fill="#D9D9D9"/>
<path d="M166.816 7.43018C167.436 7.30744 168.067 7.24607 168.708 7.24607C168.723 7.24607 168.738 7.24607 168.753 7.24607C168.462 6.77559 168.122 6.34089 167.742 5.95223C167.416 5.61982 167.071 5.32832 166.701 5.0675C166.19 5.07262 165.68 5.13399 165.179 5.25161C165.795 5.87552 166.325 6.57102 166.761 7.33301C166.781 7.3637 166.796 7.39949 166.816 7.43018Z" fill="#D9D9D9"/>
<path d="M149.159 17.4848C149.159 18.2417 149.269 18.9832 149.479 19.6838C149.659 18.7224 149.99 17.8019 150.46 16.9478C150.095 16.2881 149.814 15.5875 149.619 14.8562C149.314 15.6847 149.154 16.5745 149.154 17.4848H149.159Z" fill="#D9D9D9"/>
<path d="M173.678 10.0639C173.322 9.01556 172.737 8.05924 171.946 7.25122C171.215 6.50458 170.354 5.93692 169.418 5.5636C170.179 6.51992 170.74 7.62966 171.06 8.81611C171.996 9.08204 172.882 9.50139 173.678 10.0639Z" fill="#D9D9D9"/>
<path d="M158.728 27.4518C157.973 27.6308 157.197 27.7228 156.406 27.7177C156.636 28.091 156.897 28.4388 157.187 28.7661C157.492 28.807 157.803 28.8275 158.118 28.8275C158.658 28.8275 159.204 28.7661 159.729 28.6433C159.364 28.2751 159.029 27.8762 158.723 27.4518H158.728Z" fill="#D9D9D9"/>
<path d="M172.256 21.0948C172.261 21.1204 172.271 21.146 172.276 21.1715C172.492 22.0256 172.602 22.9052 172.597 23.7848C173.057 23.4882 173.483 23.1404 173.863 22.7518C173.903 22.7108 173.938 22.6699 173.978 22.6341C174.048 22.2199 174.083 21.8005 174.083 21.3761C174.083 20.8238 174.023 20.2663 173.903 19.7294C173.402 20.2459 172.852 20.701 172.256 21.0999V21.0948Z" fill="#D9D9D9"/>
<path d="M175.379 14.467C175.189 15.3364 174.879 16.17 174.448 16.9473C175.004 17.9446 175.364 19.0441 175.509 20.1794C175.83 19.3305 176 18.4202 176 17.4843C176 16.4257 175.785 15.4029 175.379 14.467Z" fill="#D9D9D9"/>
<path d="M155.846 5.44092C154.775 5.7989 153.789 6.41258 152.968 7.25639C152.117 8.12577 151.506 9.16903 151.161 10.3095C152.042 9.62929 153.038 9.12812 154.104 8.82639C154.439 7.58369 155.035 6.43304 155.851 5.44603L155.846 5.44092Z" fill="#D9D9D9"/>
<path d="M152.683 12.7849C152.603 12.253 152.562 11.7212 152.567 11.1791C152.107 11.4757 151.682 11.8234 151.301 12.2121C151.136 12.3809 150.986 12.5496 150.841 12.7286C150.856 13.2093 150.916 13.6952 151.016 14.1657C151.521 13.644 152.082 13.1787 152.688 12.7798L152.683 12.7849Z" fill="#D9D9D9"/>
<path d="M170.735 13.6797C169.534 13.0354 168.182 12.6825 166.786 12.6825H166.631V12.524C166.631 11.3835 166.411 10.2687 165.995 9.23565C164.764 9.65499 163.633 10.3658 162.687 11.3324L162.577 11.4449L162.472 11.3324C161.471 10.3096 160.26 9.56806 158.944 9.15894C158.513 10.2073 158.278 11.3477 158.278 12.5137V12.524V12.6723H158.123C156.806 12.6723 155.535 12.9842 154.389 13.557C154.78 14.9736 155.515 16.293 156.561 17.3618L156.671 17.4743L156.566 17.5766L156.456 17.4794L156.556 17.5817C155.74 18.4153 155.115 19.3972 154.694 20.4609C155.76 20.9416 156.922 21.2024 158.118 21.2024H158.273V21.3559C158.273 22.8798 158.668 24.3476 159.379 25.6363C160.525 25.2067 161.576 24.5265 162.462 23.6162L162.572 23.5037L162.682 23.6162C163.518 24.4703 164.499 25.1249 165.565 25.5545C166.251 24.2862 166.626 22.8491 166.626 21.3559V21.1973H166.781C168.057 21.1973 169.294 20.9007 170.415 20.3586C169.994 19.3307 169.384 18.3846 168.593 17.5766L168.693 17.4692L168.588 17.5715L168.483 17.4692L168.593 17.3567C169.614 16.3134 170.34 15.0349 170.735 13.6593V13.6797Z" fill="#D9D9D9"/>
<path d="M158.122 7.38978C158.122 7.38978 158.142 7.34887 158.152 7.33353C158.588 6.57665 159.123 5.87603 159.734 5.25212C159.313 5.15496 158.883 5.0987 158.453 5.07825C158.087 5.33395 157.742 5.62545 157.422 5.95274C157.036 6.34652 156.696 6.78121 156.411 7.24659C156.426 7.24659 156.441 7.24659 156.456 7.24659C157.016 7.24659 157.577 7.29261 158.122 7.38978Z" fill="#D9D9D9"/>
<path d="M115.081 11.6241C115.732 10.499 116.507 9.60915 117.488 8.93921C119.43 7.6198 121.502 7.31296 123.664 8.29996C125.101 8.95456 125.877 10.2075 126.217 11.7161C126.382 12.4474 126.427 13.2196 126.432 13.9714C126.452 17.5205 126.452 21.0697 126.432 24.6188C126.432 25.3041 126.522 25.9331 126.827 26.5416C127.008 26.8945 127.143 27.273 127.318 27.6872H119.851C120.061 27.1553 120.291 26.6439 120.471 26.1172C120.581 25.7899 120.671 25.4319 120.676 25.0893C120.692 21.7242 120.692 18.3643 120.676 14.9993C120.676 14.4777 120.611 13.9509 120.526 13.4344C120.361 12.427 119.766 11.7724 118.835 11.4246C117.664 10.9899 116.507 11.0462 115.401 11.6292C115.266 11.7008 115.126 11.9207 115.126 12.0741C115.111 16.5233 115.111 20.9725 115.121 25.4166C115.121 25.6109 115.186 25.8103 115.256 25.9944C115.466 26.5519 115.697 27.1093 115.937 27.6974H108.46C108.71 27.1093 108.955 26.5468 109.18 25.9791C109.255 25.795 109.316 25.5956 109.316 25.4012C109.316 21.668 109.331 17.9296 109.301 14.1964C109.286 12.3656 108.154 11.2354 106.358 11.1587C105.562 11.1229 104.786 11.1792 104.05 11.5422C103.815 11.6599 103.715 11.7877 103.715 12.069C103.725 16.5028 103.71 20.9316 103.74 25.3654C103.74 25.8001 104 26.2399 104.161 26.6695C104.281 27.0019 104.431 27.319 104.581 27.6872H97.1138C97.354 27.1093 97.6042 26.5519 97.8195 25.9842C97.9095 25.7439 97.9796 25.483 97.9796 25.2273C97.9896 20.5941 98.0046 15.9608 97.9646 11.3275C97.9596 10.6831 97.6793 10.0387 97.5142 9.39948C97.4091 8.98524 97.2739 8.57612 97.1388 8.13632H103.72V11.3684C103.755 11.3786 103.785 11.3888 103.82 11.3991C103.97 11.1945 104.116 10.9848 104.266 10.7803C105.187 9.54778 106.308 8.54544 107.774 8.08518C109.546 7.52775 111.302 7.52263 112.944 8.59146C113.865 9.1898 114.476 10.0285 114.871 11.0513C114.931 11.2098 114.986 11.3684 115.081 11.619V11.6241Z" fill="#D9D9D9"/>
<path d="M88.4954 8.12105C88.7256 8.12105 92.6343 8.12105 94.4261 8.12105C94.8265 8.12105 95.0283 8.3205 95.0317 8.71939C95.0317 12.8566 95.0767 16.9939 95.0116 21.1311C94.9816 23.1767 95.1968 25.1763 95.6473 27.1605C95.6723 27.2833 95.7474 27.5799 95.7674 27.7026L95.402 27.7231C93.6854 27.7231 91.9687 27.7179 90.2521 27.7333C89.9367 27.7333 89.8367 27.6259 89.7966 27.3242C89.6665 26.3321 89.5113 25.3399 89.3412 24.1995C89.136 24.4808 89.0059 24.6547 88.8757 24.8285C87.9198 26.1531 86.7887 27.2781 85.2122 27.7537C83.0601 28.4083 80.9881 28.3214 79.2715 26.6082C78.2154 25.5547 77.73 24.1944 77.6849 22.7113C77.6199 20.7629 77.5848 14.4062 77.6399 13.1839C77.71 11.6906 77.5298 10.2536 77.0193 8.85747C76.9442 8.64268 76.8992 8.41767 76.8291 8.15174C77.0093 8.1364 81.0332 8.12617 82.915 8.10571C83.3054 8.10571 83.3904 8.23868 83.3904 8.612C83.3804 12.5344 83.3754 16.4518 83.3904 20.3742C83.3904 21.0032 83.4755 21.6425 83.5906 22.2613C83.7508 23.1307 84.2413 23.8057 85.022 24.1893C86.3383 24.8388 87.6696 24.7825 88.9608 24.1075C89.1059 24.0307 89.2511 23.7853 89.2511 23.6216C89.2661 19.4537 89.2961 15.2807 89.2361 11.1128C89.2261 10.3201 88.8407 9.53252 88.6305 8.74496C88.5804 8.55575 88.5404 8.36653 88.4803 8.11083L88.4954 8.12105Z" fill="#D9D9D9"/>
<path d="M46.1495 17.6692C46.1595 19.7659 45.7391 21.653 44.7382 23.3713C43.4469 25.5959 41.5651 27.0688 39.1177 27.7182C35.4842 28.6848 32.156 28.0302 29.3984 25.3453C27.1112 23.1156 26.3154 20.262 26.5706 17.0811C26.7508 14.8463 27.4715 12.8313 28.9079 11.1028C30.2192 9.52257 31.8958 8.51 33.8477 8.05997C36.265 7.50254 38.6423 7.66107 40.9095 8.79127C43.1166 9.89078 44.618 11.65 45.5139 13.9564C45.9894 15.1787 46.1745 16.4623 46.1445 17.6692H46.1495ZM32.9318 20.7223C33.0169 22.3178 33.152 23.9083 33.6525 25.4374C33.9077 26.2096 34.2581 26.9409 34.9287 27.4267C36.255 28.3831 38.1018 27.8256 38.7224 26.184C39.1277 25.1152 39.418 23.9645 39.5532 22.8292C39.9636 19.3261 39.9435 15.8077 39.4581 12.3046C39.3029 11.1693 39.0226 10.0544 38.377 9.08277C37.3811 7.59459 35.244 7.54345 34.3181 9.07765C33.8677 9.8243 33.4923 10.6988 33.3672 11.558C33.0619 13.6956 32.8817 19.8324 32.9318 20.7274V20.7223Z" fill="#D9D9D9"/>
<path d="M71.2637 2.72593C71.2737 2.98674 71.2987 6.16254 71.2837 7.59958C71.2787 7.99847 71.3938 8.14678 71.7992 8.14167C73.0154 8.12121 74.2266 8.15189 75.4427 8.12632C75.8181 8.1161 75.9382 8.24906 75.8932 8.60193C75.8782 8.70932 75.8932 8.81672 75.8932 8.92922C75.8782 9.92646 76.0333 9.79861 75.0123 9.80372C73.9363 9.80884 72.8552 9.81906 71.7792 9.79861C71.3938 9.78838 71.2887 9.93669 71.2887 10.31C71.2987 14.1353 71.2887 17.9657 71.3037 21.791C71.3037 22.2359 71.3538 22.6961 71.4739 23.1206C71.8292 24.3735 72.7852 25.0281 74.1565 24.9003C74.8321 24.8389 75.4928 24.5832 76.1784 24.4093C76.1334 24.527 76.0783 24.7213 75.9883 24.8952C74.2766 28.1733 70.7332 28.7767 68.0456 27.4726C66.7894 26.859 66.0086 25.7697 65.7734 24.348C65.6483 23.6064 65.5782 22.8445 65.5732 22.0876C65.5532 18.1856 65.5582 14.2785 65.5732 10.3714C65.5732 9.93669 65.4681 9.74747 65.0177 9.78838L62.9907 9.74235C62.9907 9.74235 71.0685 2.87423 71.2637 2.7157V2.72593Z" fill="#D9D9D9"/>
<path d="M129.33 27.6669C128.89 25.9025 128.054 22.2409 128.084 22.2153C128.199 22.3074 131.142 25.0281 132.518 26.2708C133.359 27.0276 134.285 27.6055 135.466 27.6822C136.822 27.7743 138.093 27.1248 138.554 26.0099C139.094 24.711 138.754 23.1308 137.743 22.2256C136.917 21.4892 135.921 21.0749 134.925 20.6505C133.764 20.1595 132.588 19.6993 131.447 19.1572C129.56 18.252 128.644 16.682 128.479 14.5648C128.209 11.1077 130.561 8.57627 133.584 8.09556C134.49 7.95237 135.426 7.97794 136.347 7.99328C137.788 8.01373 139.225 8.08533 140.666 8.15181C140.821 8.15693 141.071 8.27966 141.101 8.39217C141.447 9.7883 142.082 12.8669 142.082 12.8669C141.887 12.7186 139.225 10.4173 138.018 9.37406C137.062 8.54559 136.001 8.03419 134.69 8.17227C133.504 8.30012 132.593 9.23598 132.493 10.4429C132.368 11.9106 133.049 12.8925 134.26 13.5062C135.371 14.0687 136.542 14.5085 137.673 15.0353C138.594 15.4648 139.525 15.8842 140.406 16.3956C141.967 17.3008 142.633 18.7634 142.738 20.5533C142.968 24.5167 139.79 27.8459 135.831 27.9021C133.684 27.9328 131.532 27.7538 129.325 27.672L129.33 27.6669Z" fill="#D9D9D9"/>
<path d="M62.9256 22.4405C62.4051 24.1946 61.5643 25.5498 60.243 26.5828C57.3052 28.8739 52.4405 28.6335 49.6778 25.8515C48.0513 24.215 47.3306 22.1848 47.3556 19.8528C47.3756 17.8992 48.1414 16.2474 49.2675 14.7439C50.824 12.6727 52.5406 10.7549 54.5976 9.17472C55.9239 8.15703 57.4053 7.60471 59.0819 7.62006C59.9478 7.63028 60.8136 7.6354 61.6794 7.61494C62.0398 7.60472 62.1499 7.73257 62.1449 8.09566C62.1249 9.44576 62.1249 10.7907 62.1449 12.1408C62.1499 12.5244 62.0348 12.6471 61.6544 12.6471C58.7716 12.6318 52.2403 12.6727 51.87 12.729C51.0742 12.8517 50.6988 13.4193 50.5987 14.166C50.3985 15.6491 50.5987 17.0912 51.1042 18.4976C52.2854 21.7859 55.4034 23.6627 58.9268 23.5758C60.3181 23.54 61.6344 23.2894 62.9356 22.4405H62.9256Z" fill="#D9D9D9"/>
<path d="M0 27.7846C0.270261 27.176 0.540521 26.6442 0.750724 26.0867C0.88085 25.7339 0.990956 25.3503 0.990956 24.977C1.00597 17.664 0.995961 10.356 1.01098 3.04299C1.01098 2.50091 0.930898 2.00996 0.680657 1.52925C0.440425 1.06899 0.250241 0.583156 0.00500483 0.0359563C0.220212 0.0257283 8.10782 0.0155003 11.8965 0.00015823C13.4029 -0.00495578 14.9094 0.112666 16.3508 0.532015C18.5229 1.16615 20.4447 2.29635 22.0062 4.00443C23.6879 5.84547 24.7939 8.01893 25.2744 10.4788C26.0902 14.6365 25.4846 18.5742 23.1173 22.0978C21.2255 24.9105 18.658 26.8385 15.2998 27.4624C14.3338 27.6414 13.3479 27.7846 12.3719 27.7948C8.38809 27.8306 0.205198 27.7948 0.00500483 27.7846H0ZM7.22197 27.4675C8.8135 27.4675 10.37 27.4982 11.9265 27.4624C13.9885 27.4113 15.56 26.4038 16.7061 24.6906C17.8672 22.957 18.3327 20.9727 18.5979 18.9373C18.9933 15.8689 19.0133 12.7903 18.668 9.71678C18.4428 7.72232 18.0374 5.77388 17.1065 3.98397C15.8853 1.62641 13.9935 0.332569 11.3409 0.306999C10.0547 0.291657 8.76345 0.301885 7.47721 0.301885C7.39213 0.301885 7.30705 0.322341 7.22197 0.332569V27.4726V27.4675Z" fill="#D9D9D9"/>
<path d="M139.888 48C139.387 48 138.901 47.9268 138.428 47.7804C137.961 47.641 137.581 47.4388 137.286 47.1738L137.759 46.4C138.013 46.6231 138.325 46.7974 138.695 46.9228C139.065 47.0553 139.453 47.1215 139.857 47.1215C140.501 47.1215 140.975 46.9682 141.276 46.6614C141.578 46.3546 141.729 45.8875 141.729 45.26V44.0888L141.832 42.9907L141.78 41.8822V40.3658H142.716V45.1555C142.716 46.1315 142.476 46.8496 141.996 47.3098C141.516 47.7699 140.813 48 139.888 48ZM139.764 45.6784C139.237 45.6784 138.763 45.5668 138.345 45.3437C137.934 45.1136 137.605 44.7964 137.358 44.392C137.118 43.9877 136.998 43.5206 136.998 42.9907C136.998 42.4539 137.118 41.9867 137.358 41.5893C137.605 41.185 137.934 40.8712 138.345 40.6481C138.763 40.425 139.237 40.3135 139.764 40.3135C140.231 40.3135 140.656 40.4111 141.04 40.6063C141.424 40.7945 141.729 41.0874 141.955 41.4848C142.188 41.8822 142.305 42.3841 142.305 42.9907C142.305 43.5903 142.188 44.0888 141.955 44.4862C141.729 44.8836 141.424 45.1834 141.04 45.3855C140.656 45.5808 140.231 45.6784 139.764 45.6784ZM139.878 44.7999C140.241 44.7999 140.563 44.7232 140.844 44.5698C141.125 44.4164 141.345 44.2038 141.502 43.9319C141.667 43.66 141.749 43.3463 141.749 42.9907C141.749 42.6351 141.667 42.3214 141.502 42.0495C141.345 41.7776 141.125 41.5684 140.844 41.422C140.563 41.2686 140.241 41.1919 139.878 41.1919C139.514 41.1919 139.189 41.2686 138.901 41.422C138.62 41.5684 138.397 41.7776 138.232 42.0495C138.074 42.3214 137.996 42.6351 137.996 42.9907C137.996 43.3463 138.074 43.66 138.232 43.9319C138.397 44.2038 138.62 44.4164 138.901 44.5698C139.189 44.7232 139.514 44.7999 139.878 44.7999Z" fill="#D9D9D9"/>
<path d="M130.81 45.9084V40.3658H131.756V41.8612L131.602 41.4638C131.78 41.1013 132.054 40.8189 132.425 40.6168C132.795 40.4146 133.227 40.3135 133.72 40.3135C134.166 40.3135 134.557 40.4006 134.893 40.5749C135.236 40.7492 135.503 41.0142 135.695 41.3697C135.887 41.7253 135.983 42.175 135.983 42.7188V45.9084H134.996V42.8338C134.996 42.297 134.865 41.8926 134.605 41.6207C134.351 41.3488 133.991 41.2129 133.525 41.2129C133.175 41.2129 132.87 41.2826 132.61 41.422C132.349 41.5614 132.147 41.7671 132.003 42.039C131.866 42.3109 131.797 42.6491 131.797 43.0534V45.9084H130.81Z" fill="#D9D9D9"/>
<path d="M128.247 45.9089V40.3662H129.234V45.9089H128.247ZM128.74 39.2995C128.548 39.2995 128.387 39.2368 128.257 39.1113C128.133 38.9858 128.072 38.8324 128.072 38.6512C128.072 38.4629 128.133 38.306 128.257 38.1806C128.387 38.0551 128.548 37.9923 128.74 37.9923C128.932 37.9923 129.09 38.0551 129.213 38.1806C129.344 38.2991 129.409 38.449 129.409 38.6302C129.409 38.8185 129.347 38.9788 129.224 39.1113C129.1 39.2368 128.939 39.2995 128.74 39.2995Z" fill="#D9D9D9"/>
<path d="M126.168 45.9717C125.62 45.9717 125.195 45.8218 124.893 45.522C124.592 45.2222 124.441 44.7935 124.441 44.2357V39.1532H125.428V44.1939C125.428 44.4937 125.5 44.7238 125.644 44.8841C125.795 45.0445 126.007 45.1246 126.282 45.1246C126.59 45.1246 126.847 45.0375 127.053 44.8632L127.361 45.5848C127.211 45.7173 127.029 45.8149 126.816 45.8776C126.611 45.9404 126.395 45.9717 126.168 45.9717ZM123.515 41.1925V40.3663H126.991V41.1925H123.515Z" fill="#D9D9D9"/>
<path d="M121.763 45.9085V38.1488H122.75V45.9085H121.763Z" fill="#D9D9D9"/>
<path d="M117.405 45.9715C116.939 45.9715 116.528 45.8844 116.171 45.7101C115.822 45.5358 115.547 45.2708 115.349 44.9153C115.157 44.5527 115.061 44.0995 115.061 43.5557V40.3661H116.048V43.4407C116.048 43.9845 116.175 44.3924 116.428 44.6643C116.689 44.9362 117.052 45.0721 117.518 45.0721C117.861 45.0721 118.159 45.0024 118.413 44.863C118.667 44.7166 118.862 44.5074 118.999 44.2355C119.136 43.9566 119.205 43.622 119.205 43.2315V40.3661H120.192V45.9088H119.256V44.4133L119.411 44.8107C119.232 45.1802 118.965 45.466 118.609 45.6682C118.252 45.8704 117.851 45.9715 117.405 45.9715Z" fill="#D9D9D9"/>
<path d="M111.832 45.9712C111.379 45.9712 110.947 45.9084 110.536 45.7829C110.132 45.6574 109.813 45.5041 109.58 45.3228L109.991 44.528C110.224 44.6884 110.512 44.8243 110.855 44.9359C111.198 45.0474 111.547 45.1032 111.904 45.1032C112.363 45.1032 112.692 45.0369 112.891 44.9045C113.097 44.772 113.2 44.5873 113.2 44.3502C113.2 44.1759 113.138 44.04 113.014 43.9424C112.891 43.8447 112.727 43.7715 112.521 43.7227C112.322 43.6739 112.099 43.6321 111.852 43.5972C111.606 43.5554 111.359 43.5066 111.112 43.4508C110.865 43.3881 110.639 43.3044 110.433 43.1998C110.227 43.0883 110.063 42.9384 109.94 42.7502C109.816 42.5549 109.754 42.297 109.754 41.9763C109.754 41.6416 109.847 41.3488 110.032 41.0978C110.217 40.8468 110.478 40.6551 110.814 40.5226C111.156 40.3832 111.561 40.3135 112.027 40.3135C112.384 40.3135 112.744 40.3588 113.107 40.4494C113.477 40.5331 113.779 40.6551 114.012 40.8155L113.59 41.6103C113.344 41.4429 113.086 41.3279 112.819 41.2651C112.552 41.2024 112.284 41.171 112.017 41.171C111.585 41.171 111.263 41.2442 111.05 41.3906C110.838 41.5301 110.731 41.7113 110.731 41.9344C110.731 42.1227 110.793 42.2691 110.917 42.3737C111.047 42.4713 111.211 42.548 111.41 42.6037C111.616 42.6595 111.842 42.7083 112.089 42.7502C112.336 42.785 112.583 42.8338 112.829 42.8966C113.076 42.9523 113.299 43.0325 113.498 43.1371C113.704 43.2417 113.868 43.3881 113.991 43.5763C114.122 43.7646 114.187 44.0156 114.187 44.3293C114.187 44.6639 114.091 44.9533 113.899 45.1973C113.707 45.4413 113.436 45.633 113.086 45.7725C112.737 45.9049 112.319 45.9712 111.832 45.9712Z" fill="#D9D9D9"/>
<path d="M103.577 45.9084V40.3658H104.523V41.8612L104.369 41.4638C104.547 41.1013 104.821 40.8189 105.191 40.6168C105.561 40.4146 105.993 40.3135 106.487 40.3135C106.933 40.3135 107.323 40.4006 107.659 40.5749C108.002 40.7492 108.27 41.0142 108.462 41.3697C108.654 41.7253 108.75 42.175 108.75 42.7188V45.9084H107.762V42.8338C107.762 42.297 107.632 41.8926 107.371 41.6207C107.118 41.3488 106.758 41.2129 106.292 41.2129C105.942 41.2129 105.637 41.2826 105.376 41.422C105.116 41.5614 104.914 41.7671 104.77 42.039C104.632 42.3109 104.564 42.6491 104.564 43.0534V45.9084H103.577Z" fill="#D9D9D9"/>
<path d="M99.6919 45.9712C99.1434 45.9712 98.6567 45.8492 98.2316 45.6052C97.8065 45.3611 97.4706 45.0265 97.2237 44.6012C96.9769 44.1689 96.8535 43.6809 96.8535 43.1371C96.8535 42.5863 96.9769 42.0983 97.2237 41.673C97.4706 41.2477 97.8065 40.9165 98.2316 40.6795C98.6567 40.4355 99.1434 40.3135 99.6919 40.3135C100.234 40.3135 100.717 40.4355 101.142 40.6795C101.574 40.9165 101.91 41.2477 102.15 41.673C102.397 42.0913 102.52 42.5793 102.52 43.1371C102.52 43.6879 102.397 44.1759 102.15 44.6012C101.91 45.0265 101.574 45.3611 101.142 45.6052C100.717 45.8492 100.234 45.9712 99.6919 45.9712ZM99.6919 45.0927C100.042 45.0927 100.354 45.0125 100.628 44.8522C100.909 44.6918 101.128 44.4652 101.286 44.1724C101.444 43.8726 101.522 43.5275 101.522 43.1371C101.522 42.7397 101.444 42.3981 101.286 42.1122C101.128 41.8194 100.909 41.5928 100.628 41.4325C100.354 41.2721 100.042 41.1919 99.6919 41.1919C99.3423 41.1919 99.0303 41.2721 98.7561 41.4325C98.4818 41.5928 98.2624 41.8194 98.0979 42.1122C97.9333 42.3981 97.8511 42.7397 97.8511 43.1371C97.8511 43.5275 97.9333 43.8726 98.0979 44.1724C98.2624 44.4652 98.4818 44.6918 98.7561 44.8522C99.0303 45.0125 99.3423 45.0927 99.6919 45.0927Z" fill="#D9D9D9"/>
<path d="M93.9286 45.9925C93.3802 45.9925 92.8728 45.9018 92.4066 45.7206C91.9472 45.5323 91.5462 45.2709 91.2034 44.9362C90.8674 44.5946 90.6035 44.1972 90.4115 43.744C90.2195 43.2909 90.1235 42.7924 90.1235 42.2486C90.1235 41.7047 90.2195 41.2063 90.4115 40.7531C90.6035 40.2999 90.8709 39.906 91.2137 39.5713C91.5565 39.2297 91.9575 38.9683 92.4169 38.787C92.8831 38.5988 93.3904 38.5046 93.9389 38.5046C94.4943 38.5046 95.005 38.6022 95.4713 38.7975C95.9443 38.9857 96.3454 39.2681 96.6745 39.6445L96.006 40.3034C95.7318 40.0106 95.4233 39.7944 95.0805 39.655C94.7377 39.5086 94.3709 39.4354 93.9801 39.4354C93.5756 39.4354 93.1985 39.5051 92.8488 39.6445C92.506 39.784 92.2078 39.9792 91.9541 40.2302C91.7004 40.4812 91.5016 40.781 91.3576 41.1296C91.2205 41.4712 91.1519 41.8442 91.1519 42.2486C91.1519 42.6529 91.2205 43.0294 91.3576 43.378C91.5016 43.7196 91.7004 44.0159 91.9541 44.2669C92.2078 44.5179 92.506 44.7131 92.8488 44.8526C93.1985 44.992 93.5756 45.0617 93.9801 45.0617C94.3709 45.0617 94.7377 44.992 95.0805 44.8526C95.4233 44.7062 95.7318 44.4831 96.006 44.1833L96.6745 44.8421C96.3454 45.2186 95.9443 45.5044 95.4713 45.6996C95.005 45.8949 94.4908 45.9925 93.9286 45.9925Z" fill="#D9D9D9"/>
<path d="M81.4209 45.9084V40.3658H82.367V41.8612L82.2128 41.4638C82.391 41.1013 82.6653 40.8189 83.0355 40.6168C83.4057 40.4146 83.8377 40.3135 84.3313 40.3135C84.7769 40.3135 85.1677 40.4006 85.5037 40.5749C85.8465 40.7492 86.1139 41.0142 86.3058 41.3697C86.4978 41.7253 86.5938 42.175 86.5938 42.7188V45.9084H85.6065V42.8338C85.6065 42.297 85.4763 41.8926 85.2157 41.6207C84.9621 41.3488 84.6021 41.2129 84.1359 41.2129C83.7862 41.2129 83.4811 41.2826 83.2206 41.422C82.9601 41.5614 82.7578 41.7671 82.6139 42.039C82.4767 42.3109 82.4082 42.6491 82.4082 43.0534V45.9084H81.4209Z" fill="#D9D9D9"/>
<path d="M77.5357 45.9712C76.9872 45.9712 76.5004 45.8492 76.0753 45.6052C75.6503 45.3611 75.3143 45.0265 75.0675 44.6012C74.8207 44.1689 74.6973 43.6809 74.6973 43.1371C74.6973 42.5863 74.8207 42.0983 75.0675 41.673C75.3143 41.2477 75.6503 40.9165 76.0753 40.6795C76.5004 40.4355 76.9872 40.3135 77.5357 40.3135C78.0773 40.3135 78.5606 40.4355 78.9857 40.6795C79.4177 40.9165 79.7536 41.2477 79.9936 41.673C80.2404 42.0913 80.3638 42.5793 80.3638 43.1371C80.3638 43.6879 80.2404 44.1759 79.9936 44.6012C79.7536 45.0265 79.4177 45.3611 78.9857 45.6052C78.5606 45.8492 78.0773 45.9712 77.5357 45.9712ZM77.5357 45.0927C77.8853 45.0927 78.1973 45.0125 78.4715 44.8522C78.7526 44.6918 78.972 44.4652 79.1297 44.1724C79.2874 43.8726 79.3662 43.5275 79.3662 43.1371C79.3662 42.7397 79.2874 42.3981 79.1297 42.1122C78.972 41.8194 78.7526 41.5928 78.4715 41.4325C78.1973 41.2721 77.8853 41.1919 77.5357 41.1919C77.186 41.1919 76.8741 41.2721 76.5998 41.4325C76.3256 41.5928 76.1062 41.8194 75.9416 42.1122C75.7771 42.3981 75.6948 42.7397 75.6948 43.1371C75.6948 43.5275 75.7771 43.8726 75.9416 44.1724C76.1062 44.4652 76.3256 44.6918 76.5998 44.8522C76.8741 45.0125 77.186 45.0927 77.5357 45.0927Z" fill="#D9D9D9"/>
<path d="M72.6377 45.9089V40.3662H73.625V45.9089H72.6377ZM73.1314 39.2995C72.9394 39.2995 72.7783 39.2368 72.648 39.1113C72.5246 38.9858 72.4629 38.8324 72.4629 38.6512C72.4629 38.4629 72.5246 38.306 72.648 38.1806C72.7783 38.0551 72.9394 37.9923 73.1314 37.9923C73.3233 37.9923 73.481 38.0551 73.6044 38.1806C73.7347 38.2991 73.7998 38.449 73.7998 38.6302C73.7998 38.8185 73.7381 38.9788 73.6147 39.1113C73.4913 39.2368 73.3302 39.2995 73.1314 39.2995Z" fill="#D9D9D9"/>
<path d="M70.5595 45.9717C70.0111 45.9717 69.586 45.8218 69.2843 45.522C68.9826 45.2222 68.8318 44.7935 68.8318 44.2357V39.1532H69.8191V44.1939C69.8191 44.4937 69.8911 44.7238 70.0351 44.8841C70.1859 45.0445 70.3984 45.1246 70.6727 45.1246C70.9812 45.1246 71.2383 45.0375 71.444 44.8632L71.7525 45.5848C71.6017 45.7173 71.42 45.8149 71.2074 45.8776C71.0018 45.9404 70.7858 45.9717 70.5595 45.9717ZM67.9062 41.1925V40.3663H71.3823V41.1925H67.9062Z" fill="#D9D9D9"/>
<path d="M66.2333 45.9084V44.7372L66.1819 44.5175V42.5201C66.1819 42.0948 66.0585 41.7671 65.8117 41.537C65.5717 41.3 65.2084 41.1815 64.7216 41.1815C64.3993 41.1815 64.084 41.2373 63.7754 41.3488C63.4669 41.4534 63.2064 41.5963 62.9938 41.7776L62.5825 41.0246C62.8636 40.7945 63.1995 40.6202 63.5903 40.5017C63.988 40.3762 64.4028 40.3135 64.8347 40.3135C65.582 40.3135 66.1579 40.4982 66.5624 40.8677C66.9669 41.2373 67.1692 41.802 67.1692 42.5619V45.9084H66.2333ZM64.4439 45.9712C64.0394 45.9712 63.6829 45.9015 63.3744 45.762C63.0727 45.6226 62.8396 45.4309 62.675 45.1868C62.5105 44.9359 62.4282 44.6535 62.4282 44.3398C62.4282 44.04 62.4968 43.7681 62.6339 43.524C62.7779 43.28 63.0076 43.0848 63.3229 42.9384C63.6452 42.792 64.0771 42.7188 64.6187 42.7188H66.3465V43.4404H64.6599C64.1662 43.4404 63.8337 43.524 63.6623 43.6914C63.4909 43.8587 63.4052 44.0609 63.4052 44.2979C63.4052 44.5698 63.5115 44.7894 63.724 44.9568C63.9366 45.1171 64.2314 45.1973 64.6084 45.1973C64.9787 45.1973 65.3009 45.1136 65.5751 44.9463C65.8562 44.779 66.0585 44.535 66.1819 44.2143L66.3773 44.9045C66.247 45.2322 66.0174 45.4936 65.6883 45.6888C65.3592 45.8771 64.9444 45.9712 64.4439 45.9712Z" fill="#D9D9D9"/>
<path d="M59.6588 45.9712C59.1035 45.9712 58.6064 45.8492 58.1676 45.6052C57.7357 45.3611 57.3963 45.0265 57.1495 44.6012C56.9027 44.1759 56.7793 43.6879 56.7793 43.1371C56.7793 42.5863 56.9027 42.0983 57.1495 41.673C57.3963 41.2477 57.7357 40.9165 58.1676 40.6795C58.6064 40.4355 59.1035 40.3135 59.6588 40.3135C60.1525 40.3135 60.5913 40.4146 60.9752 40.6168C61.366 40.812 61.6677 41.1048 61.8802 41.4952L61.1295 41.9867C60.9512 41.7148 60.7318 41.5161 60.4713 41.3906C60.2176 41.2582 59.9434 41.1919 59.6486 41.1919C59.292 41.1919 58.9732 41.2721 58.6921 41.4325C58.411 41.5928 58.1882 41.8194 58.0237 42.1122C57.8591 42.3981 57.7768 42.7397 57.7768 43.1371C57.7768 43.5345 57.8591 43.8796 58.0237 44.1724C58.1882 44.4652 58.411 44.6918 58.6921 44.8522C58.9732 45.0125 59.292 45.0927 59.6486 45.0927C59.9434 45.0927 60.2176 45.03 60.4713 44.9045C60.7318 44.772 60.9512 44.5698 61.1295 44.2979L61.8802 44.779C61.6677 45.1624 61.366 45.4587 60.9752 45.6679C60.5913 45.8701 60.1525 45.9712 59.6588 45.9712Z" fill="#D9D9D9"/>
<path d="M52.9253 45.9715C52.4591 45.9715 52.0478 45.8844 51.6912 45.7101C51.3416 45.5358 51.0673 45.2708 50.8685 44.9153C50.6766 44.5527 50.5806 44.0995 50.5806 43.5557V40.3661H51.5678V43.4407C51.5678 43.9845 51.6947 44.3924 51.9484 44.6643C52.2089 44.9362 52.5723 45.0721 53.0385 45.0721C53.3813 45.0721 53.6795 45.0024 53.9332 44.863C54.1868 44.7166 54.3822 44.5074 54.5194 44.2355C54.6565 43.9566 54.7251 43.622 54.7251 43.2315V40.3661H55.7123V45.9088H54.7765V44.4133L54.9307 44.8107C54.7525 45.1802 54.4851 45.466 54.1286 45.6682C53.7721 45.8704 53.371 45.9715 52.9253 45.9715Z" fill="#D9D9D9"/>
<path d="M46.1829 45.9713C45.655 45.9713 45.1819 45.8528 44.7637 45.6157C44.3523 45.3787 44.0267 45.0475 43.7867 44.6222C43.5467 44.1969 43.4268 43.7019 43.4268 43.1372C43.4268 42.5725 43.5467 42.081 43.7867 41.6626C44.0267 41.2374 44.3523 40.9062 44.7637 40.6691C45.1819 40.4321 45.655 40.3136 46.1829 40.3136C46.6422 40.3136 47.057 40.4182 47.4273 40.6273C47.7975 40.8365 48.0923 41.1502 48.3117 41.5685C48.5379 41.9868 48.6511 42.5097 48.6511 43.1372C48.6511 43.7647 48.5414 44.2876 48.322 44.7059C48.1094 45.1242 47.8181 45.4414 47.4478 45.6575C47.0776 45.8667 46.656 45.9713 46.1829 45.9713ZM46.2652 45.0928C46.608 45.0928 46.9165 45.0126 47.1907 44.8523C47.4718 44.6919 47.6912 44.4654 47.8489 44.1725C48.0135 43.8727 48.0957 43.5276 48.0957 43.1372C48.0957 42.7398 48.0135 42.3982 47.8489 42.1123C47.6912 41.8195 47.4718 41.5929 47.1907 41.4326C46.9165 41.2722 46.608 41.192 46.2652 41.192C45.9155 41.192 45.6036 41.2722 45.3293 41.4326C45.0551 41.5929 44.8357 41.8195 44.6711 42.1123C44.5066 42.3982 44.4243 42.7398 44.4243 43.1372C44.4243 43.5276 44.5066 43.8727 44.6711 44.1725C44.8357 44.4654 45.0551 44.6919 45.3293 44.8523C45.6036 45.0126 45.9155 45.0928 46.2652 45.0928ZM48.1266 45.9085V44.4131L48.1883 43.1267L48.0854 41.8404V38.1488H49.0727V45.9085H48.1266Z" fill="#D9D9D9"/>
<path d="M37.564 45.909V38.5885H42.6443V39.4983H38.5924V44.9992H42.7883V45.909H37.564ZM38.4998 42.6357V41.7468H42.2021V42.6357H38.4998Z" fill="#D9D9D9"/>
<path d="M31.0566 45.9084V40.3658H32.0028V41.8717L31.9102 41.4952C32.0611 41.1118 32.3147 40.8189 32.6712 40.6168C33.0278 40.4146 33.4665 40.3135 33.9876 40.3135V41.2861C33.9465 41.2791 33.9053 41.2756 33.8642 41.2756C33.8299 41.2756 33.7956 41.2756 33.7614 41.2756C33.2334 41.2756 32.8152 41.436 32.5067 41.7567C32.1982 42.0774 32.0439 42.541 32.0439 43.1476V45.9084H31.0566Z" fill="#D9D9D9"/>
<path d="M27.4954 45.9712C26.9126 45.9712 26.3984 45.8492 25.9528 45.6052C25.514 45.3611 25.1712 45.0265 24.9244 44.6012C24.6844 44.1759 24.5645 43.6879 24.5645 43.1371C24.5645 42.5863 24.681 42.0983 24.9141 41.673C25.1541 41.2477 25.4797 40.9165 25.8911 40.6795C26.3093 40.4355 26.779 40.3135 27.3 40.3135C27.8279 40.3135 28.2941 40.432 28.6987 40.669C29.1032 40.9061 29.4185 41.2407 29.6448 41.673C29.8779 42.0983 29.9944 42.5968 29.9944 43.1685C29.9944 43.2103 29.991 43.2591 29.9842 43.3149C29.9842 43.3707 29.9807 43.4229 29.9739 43.4718H25.3358V42.7502H29.4597L29.0586 43.0011C29.0654 42.6456 28.9935 42.3284 28.8426 42.0495C28.6918 41.7706 28.4827 41.5545 28.2153 41.4011C27.9548 41.2407 27.6497 41.1606 27.3 41.1606C26.9572 41.1606 26.6521 41.2407 26.3847 41.4011C26.1173 41.5545 25.9082 41.7741 25.7574 42.0599C25.6066 42.3388 25.5312 42.6595 25.5312 43.0221V43.1894C25.5312 43.5589 25.6134 43.8901 25.778 44.1829C25.9494 44.4687 26.1859 44.6918 26.4876 44.8522C26.7892 45.0125 27.1355 45.0927 27.5263 45.0927C27.8485 45.0927 28.1399 45.0369 28.4004 44.9254C28.6678 44.8138 28.9009 44.6465 29.0997 44.4234L29.6448 45.0718C29.398 45.3646 29.0894 45.5877 28.7192 45.7411C28.3558 45.8945 27.9479 45.9712 27.4954 45.9712Z" fill="#D9D9D9"/>
<path d="M18.3765 45.9085V38.1488H19.3637V41.8613L19.1683 41.4639C19.3466 41.1014 19.6208 40.819 19.9911 40.6169C20.3613 40.4147 20.7932 40.3136 21.2869 40.3136C21.7325 40.3136 22.1233 40.4007 22.4592 40.575C22.802 40.7493 23.0694 41.0143 23.2614 41.3698C23.4534 41.7254 23.5494 42.1751 23.5494 42.7189V45.9085H22.5621V42.8339C22.5621 42.2971 22.4318 41.8927 22.1713 41.6208C21.9176 41.3489 21.5577 41.213 21.0915 41.213C20.7418 41.213 20.4367 41.2827 20.1762 41.4221C19.9156 41.5616 19.7134 41.7672 19.5694 42.0391C19.4323 42.311 19.3637 42.6492 19.3637 43.0535V45.9085H18.3765Z" fill="#D9D9D9"/>
<path d="M13.9709 48C13.4704 48 12.9836 47.9268 12.5105 47.7804C12.0443 47.641 11.6638 47.4388 11.369 47.1738L11.8421 46.4C12.0958 46.6231 12.4077 46.7974 12.7779 46.9228C13.1482 47.0553 13.5355 47.1215 13.94 47.1215C14.5845 47.1215 15.0576 46.9682 15.3592 46.6614C15.6609 46.3546 15.8117 45.8875 15.8117 45.26V44.0888L15.9146 42.9907L15.8632 41.8822V40.3658H16.799V45.1555C16.799 46.1315 16.559 46.8496 16.0791 47.3098C15.5992 47.7699 14.8964 48 13.9709 48ZM13.8475 45.6784C13.3196 45.6784 12.8465 45.5668 12.4283 45.3437C12.0169 45.1136 11.6878 44.7964 11.441 44.392C11.201 43.9877 11.0811 43.5206 11.0811 42.9907C11.0811 42.4539 11.201 41.9867 11.441 41.5893C11.6878 41.185 12.0169 40.8712 12.4283 40.6481C12.8465 40.425 13.3196 40.3135 13.8475 40.3135C14.3137 40.3135 14.7388 40.4111 15.1227 40.6063C15.5066 40.7945 15.8117 41.0874 16.038 41.4848C16.2711 41.8822 16.3876 42.3841 16.3876 42.9907C16.3876 43.5903 16.2711 44.0888 16.038 44.4862C15.8117 44.8836 15.5066 45.1834 15.1227 45.3855C14.7388 45.5808 14.3137 45.6784 13.8475 45.6784ZM13.9606 44.7999C14.324 44.7999 14.6462 44.7232 14.9273 44.5698C15.2084 44.4164 15.4278 44.2038 15.5855 43.9319C15.75 43.66 15.8323 43.3463 15.8323 42.9907C15.8323 42.6351 15.75 42.3214 15.5855 42.0495C15.4278 41.7776 15.2084 41.5684 14.9273 41.422C14.6462 41.2686 14.324 41.1919 13.9606 41.1919C13.5972 41.1919 13.2716 41.2686 12.9836 41.422C12.7025 41.5684 12.4797 41.7776 12.3151 42.0495C12.1575 42.3214 12.0786 42.6351 12.0786 42.9907C12.0786 43.3463 12.1575 43.66 12.3151 43.9319C12.4797 44.2038 12.7025 44.4164 12.9836 44.5698C13.2716 44.7232 13.5972 44.7999 13.9606 44.7999Z" fill="#D9D9D9"/>
<path d="M9.02102 45.9089V40.3662H10.0083V45.9089H9.02102ZM9.51466 39.2995C9.32269 39.2995 9.16157 39.2368 9.03131 39.1113C8.9079 38.9858 8.84619 38.8324 8.84619 38.6512C8.84619 38.4629 8.9079 38.306 9.03131 38.1806C9.16157 38.0551 9.32269 37.9923 9.51466 37.9923C9.70663 37.9923 9.86432 38.0551 9.98772 38.1806C10.118 38.2991 10.1831 38.449 10.1831 38.6302C10.1831 38.8185 10.1214 38.9788 9.99801 39.1113C9.8746 39.2368 9.71348 39.2995 9.51466 39.2995Z" fill="#D9D9D9"/>
<path d="M6.29054 45.909V38.5885H7.31894V45.909H6.29054ZM1.12793 45.909V38.5885H2.15634V45.909H1.12793ZM2.0535 42.6462V41.7363H6.38309V42.6462H2.0535Z" fill="#D9D9D9"/>
</svg>
