<svg width="221" height="50" viewBox="0 0 221 50" fill="none" xmlns="http://www.w3.org/2000/svg">
<path d="M63.2573 14.9266V14.1474H67.3612V14.8465C67.3612 16.6663 68.3752 17.6589 70.3978 17.6589C72.4203 17.6589 73.5517 17.0506 73.5517 15.5883C73.5517 14.0194 71.5451 13.0961 68.8821 12.2743C65.9363 11.351 63.3907 9.686 63.3907 6.28123C63.3907 2.87645 66.3739 0.869873 70.3337 0.869873C74.2935 0.869873 77.3941 2.81241 77.3941 6.59609V7.38591H73.3009V6.77753C73.3009 5.07515 72.3883 4.12522 70.3817 4.12522C68.3752 4.12522 67.3345 4.81365 67.3345 6.27589C67.3345 7.87155 69.2077 8.61334 71.7693 9.48321C75.2648 10.684 77.5382 12.0555 77.5382 15.4602C77.5382 18.865 74.635 20.9356 70.3871 20.9356C66.1391 20.9356 63.2627 18.9024 63.2627 14.9159L63.2573 14.9266Z" fill="#D9D9D9"/>
<path d="M79.582 13.5816C79.582 9.20023 82.6559 6.35046 87.2881 6.35046C91.9203 6.35046 94.4019 9.38701 94.4019 11.986V12.0927H90.3514C90.3514 11.986 90.3407 11.8952 90.314 11.7885C90.1006 10.6785 89.1666 9.63783 87.2668 9.63783C85.2495 9.63783 83.7286 11.0094 83.7286 13.5816C83.7286 16.1539 85.2335 17.6588 87.2668 17.6588C89.3001 17.6588 90.2233 16.5755 90.3567 15.2573H94.4072C94.4072 17.8829 91.963 20.9462 87.2935 20.9462C82.6239 20.9462 79.5874 17.963 79.5874 13.5816H79.582Z" fill="#D9D9D9"/>
<path d="M96.9526 0H101.046V8.51194C102.086 7.1511 103.741 6.34527 105.758 6.34527C109.19 6.34527 110.919 8.46925 110.919 12.0608V20.6261H106.825V13.2082C106.825 11.0575 106.164 9.84077 104.12 9.84077C102.076 9.84077 101.046 11.1216 101.046 13.0748V20.6261H96.9526V0Z" fill="#D9D9D9"/>
<path d="M113.331 13.6189C113.331 9.32826 116.458 6.36108 120.999 6.36108C125.541 6.36108 128.668 9.32826 128.668 13.6189C128.668 17.9096 125.541 20.9301 120.999 20.9301C116.458 20.9301 113.331 17.9096 113.331 13.6189ZM124.522 13.6189C124.522 11.1641 123.123 9.60576 120.999 9.60576C118.875 9.60576 117.477 11.1641 117.477 13.6189C117.477 16.0738 118.875 17.6854 120.999 17.6854C123.123 17.6854 124.522 16.0898 124.522 13.6189Z" fill="#D9D9D9"/>
<path d="M135.451 20.6315H131.412V0H135.451V20.6315Z" fill="#D9D9D9"/>
<path d="M138.2 16.773C138.2 13.8058 140.959 12.5624 144.123 12.2582C147.197 11.97 148.19 11.8099 148.19 11.2016V11.1749C148.19 10.1449 147.149 9.49917 145.367 9.49917C143.467 9.49917 142.464 10.1716 142.464 11.5591H138.44C138.44 8.19169 141.434 6.34521 145.394 6.34521C149.076 6.34521 152.294 8.01025 152.294 11.4417V17.4988C152.294 18.2246 152.304 18.913 152.481 19.4413C152.667 20.0497 152.972 20.482 153.142 20.6314H149.118C148.985 20.498 148.681 20.0764 148.51 19.5747C148.457 19.4307 148.419 19.2866 148.377 19.1371C147.32 20.2578 145.511 20.9196 143.467 20.9196C140.377 20.9196 138.2 19.4146 138.2 16.773ZM148.254 14.4409V14.3235C147.251 14.5743 146.087 14.7451 144.983 14.8625C143.189 15.0333 142.304 15.3908 142.304 16.4048C142.304 17.3707 143.067 17.8563 144.561 17.8563C146.461 17.8563 148.254 16.8691 148.254 14.4356V14.4409Z" fill="#D9D9D9"/>
<path d="M155.293 6.61205H159.397V8.51189C160.203 7.19374 161.548 6.34521 163.437 6.34521C164.557 6.34521 165.203 6.58536 165.363 6.66008L164.691 10.3317C164.531 10.241 163.965 9.97413 163.106 9.97413C160.293 9.97413 159.397 12.0874 159.397 14.014V20.6261H155.293V6.61205Z" fill="#D9D9D9"/>
<path d="M166.521 16.394V16.1539H170.588V16.3407C170.588 17.3546 171.553 17.8189 173.106 17.8189C174.296 17.8189 175.561 17.4614 175.561 16.5648C175.561 15.6682 174.585 15.3747 172.317 14.9958C169.728 14.5742 166.708 13.5816 166.708 10.7318C166.708 7.88208 169.584 6.35046 173.042 6.35046C176.501 6.35046 179.313 8.06886 179.313 10.9293V11.1161H175.289V10.956C175.289 9.89933 174.126 9.44038 173.032 9.44038C172.044 9.44038 170.721 9.71788 170.721 10.6411C170.721 11.5644 172.012 11.8685 173.875 12.1727C176.239 12.557 179.526 13.3895 179.526 16.4474C179.526 19.6654 176.228 20.9462 173.005 20.9462C169.782 20.9462 166.526 19.4146 166.526 16.394H166.521Z" fill="#D9D9D9"/>
<path d="M182.072 0H186.165V8.51194C187.206 7.1511 188.86 6.34527 190.878 6.34527C194.309 6.34527 196.038 8.46925 196.038 12.0608V20.6261H191.945V13.2082C191.945 11.0575 191.283 9.84077 189.239 9.84077C187.195 9.84077 186.165 11.1216 186.165 13.0748V20.6261H182.072V0Z" fill="#D9D9D9"/>
<path d="M198.594 2.41737C198.594 1.18994 199.688 0.490845 200.958 0.490845C202.228 0.490845 203.333 1.18994 203.333 2.41737C203.333 3.6448 202.223 4.33323 200.958 4.33323C199.694 4.33323 198.594 3.63413 198.594 2.41737ZM198.941 6.61197H202.992V20.626H198.941V6.61197Z" fill="#D9D9D9"/>
<path d="M206.012 6.61196H210.116V8.22362C211.226 7.04956 212.758 6.35046 214.444 6.35046C217.838 6.35046 220.939 8.92272 220.939 13.5549C220.939 18.1871 217.945 20.9462 214.444 20.9462C212.752 20.9462 211.226 20.1937 210.116 18.9823V26.4002H206.012V6.61196ZM213.393 17.3973C215.186 17.3973 216.734 16.1966 216.734 13.5549C216.734 10.9133 215.202 9.76591 213.393 9.76591C211.754 9.76591 210.121 10.9933 210.121 12.9572V14.158C210.121 16.1219 211.733 17.392 213.393 17.392V17.3973Z" fill="#D9D9D9"/>
<path d="M84.5987 24.3724V43.8405H80.7189V27.1955L76.9993 43.8405H71.6413L67.8523 27.1688V43.8405H63.9565V24.3724H70.8835L74.2616 41.0708L77.6664 24.3724H84.5933H84.5987Z" fill="#D9D9D9"/>
<path d="M87.4639 39.9874C87.4639 37.0202 90.2229 35.7768 93.3875 35.4726C96.4614 35.1844 97.4541 35.0243 97.4541 34.4159V34.3892C97.4541 33.3593 96.4134 32.7135 94.631 32.7135C92.7311 32.7135 91.7278 33.3859 91.7278 34.7735H87.704C87.704 31.4061 90.6979 29.5596 94.6577 29.5596C98.3399 29.5596 101.558 31.2246 101.558 34.6561V40.7132C101.558 41.4389 101.569 42.1274 101.745 42.6557C101.931 43.2641 102.236 43.6963 102.406 43.8458H98.3826C98.2492 43.7123 97.945 43.2907 97.7743 42.7891C97.7209 42.645 97.6835 42.5009 97.6408 42.3515C96.5842 43.4722 94.7751 44.1339 92.7311 44.1339C89.6412 44.1339 87.4639 42.629 87.4639 39.9874ZM97.5181 37.6499V37.5325C96.5148 37.7833 95.3514 37.9541 94.2467 38.0715C92.4536 38.2423 91.5677 38.5998 91.5677 39.6138C91.5677 40.5797 92.3309 41.0654 93.8251 41.0654C95.725 41.0654 97.5181 40.0781 97.5181 37.6499Z" fill="#D9D9D9"/>
<path d="M118.545 45.6228C118.545 48.3391 115.775 49.8974 110.892 49.8974C106.009 49.8974 103.341 48.4032 103.341 46.0977C103.341 45.452 103.512 44.9237 103.736 44.5554L107.455 45.0944C107.365 45.2119 107.242 45.4787 107.242 45.8576C107.242 46.7968 108.784 47.2451 111.004 47.2451C113.352 47.2451 114.74 46.7061 114.74 45.8736C114.74 45.0411 113.843 44.9343 112.84 44.8329L107.535 44.2939C105.582 44.0965 104.141 43.1572 104.141 41.5616C104.141 40.4142 105.065 39.4216 105.806 38.9626C104.686 38.0234 104.067 36.7213 104.067 35.1203C104.067 31.8062 106.89 29.5648 110.695 29.5648C112.755 29.5648 114.564 30.3707 115.444 31.4913L115.615 29.8263H119.217L117.75 35.211C116.917 38.2849 115.081 40.5049 111.02 40.5049C109.846 40.5049 108.79 40.3448 107.877 40.0567C107.69 40.2274 107.535 40.4516 107.535 40.7024C107.535 41.204 107.946 41.5616 109.291 41.6897L114.228 42.1806C116.8 42.4421 118.545 43.2746 118.545 45.6228ZM113.923 35.0616C113.923 33.546 112.733 32.6334 110.994 32.6334C109.254 32.6334 108.064 33.5566 108.064 35.0989C108.064 36.6412 109.254 37.5004 110.994 37.5004C112.733 37.5004 113.923 36.6305 113.923 35.0562V35.0616Z" fill="#D9D9D9"/>
<path d="M120.695 25.6265C120.695 24.3991 121.789 23.7 123.059 23.7C124.33 23.7 125.434 24.3991 125.434 25.6265C125.434 26.8539 124.324 27.5423 123.059 27.5423C121.795 27.5423 120.695 26.8432 120.695 25.6265ZM121.042 29.8211H125.093V43.8404H121.042V29.8211Z" fill="#D9D9D9"/>
<path d="M127.468 36.7907C127.468 32.4093 130.542 29.5596 135.174 29.5596C139.806 29.5596 142.288 32.5961 142.288 35.1951V35.3018H138.237C138.237 35.1951 138.226 35.1043 138.2 34.9976C137.986 33.8876 137.052 32.8469 135.153 32.8469C133.135 32.8469 131.614 34.2185 131.614 36.7961C131.614 39.3737 133.119 40.8732 135.153 40.8732C137.186 40.8732 138.109 39.7899 138.242 38.4718H142.293C142.293 41.0974 139.849 44.1606 135.179 44.1606C130.51 44.1606 127.473 41.1774 127.473 36.7961L127.468 36.7907Z" fill="#D9D9D9"/>
<path d="M26.4665 27.1102C28.8146 27.1102 30.8692 27.4945 32.6623 28.1189C32.705 27.5532 32.7477 26.9768 32.7904 26.4005C30.9439 25.8188 28.8466 25.4666 26.4665 25.4666C24.0863 25.4666 21.8983 25.8401 19.9878 26.4805C20.0518 27.0462 20.1159 27.6119 20.1746 28.1829C22.0637 27.5051 24.1664 27.1102 26.4665 27.1102Z" fill="#D9D9D9"/>
<path d="M42.7758 36.7588C43.1174 37.3245 43.4322 37.8688 43.5016 38.5252C43.5336 38.8615 43.4002 39.139 43.6457 39.6566C43.9499 40.3023 44.5689 40.4998 45.2467 40.217C46.0098 39.9021 46.1219 39.0749 45.8817 38.5519C45.727 38.2211 45.3801 37.9809 45.1293 37.7247C44.7717 37.3619 44.5369 36.8549 44.3128 36.3959C43.4216 34.5708 40.6518 29.8265 34.9683 27.2329C34.8989 27.8253 34.8242 28.4123 34.7495 28.994C39.227 31.2461 41.6765 34.9337 42.7812 36.7535L42.7758 36.7588Z" fill="#D9D9D9"/>
<path d="M26.4668 42.2396C21.4557 42.2396 20.9167 35.2006 20.1749 28.1776C19.4171 28.4498 18.6914 28.77 18.0029 29.1275C19.2891 36.1078 20.6125 43.9741 26.4668 43.9741C31.8408 43.9741 33.6873 37.0311 34.7493 28.9994C34.0982 28.6739 33.4045 28.3751 32.6627 28.1189C32.0383 35.8784 30.8749 42.2396 26.4668 42.2396Z" fill="#D9D9D9"/>
<path d="M6.79583 42.2555L2.46248 42.2395C2.46248 42.2395 6.7318 18.5715 12.7088 18.5715C15.628 18.5715 16.7327 22.5846 17.6719 27.4196C18.3977 27.0621 19.1662 26.7472 19.9773 26.475C19.2409 20.0977 18.0081 14.2114 12.7088 14.2114C3.66856 14.2168 0.648025 36.9188 0.00762764 42.629C-0.072422 43.3441 0.487925 43.9685 1.20304 43.9685C2.76667 43.9685 5.32826 43.9685 6.78516 43.9685C7.40421 43.9685 7.9272 43.5149 8.02326 42.9012C8.7864 38.0235 12.1912 32.1639 17.9921 29.138C17.8854 28.5617 17.7786 27.9906 17.6719 27.4303C9.76301 31.3154 6.79583 39.838 6.79583 42.2661V42.2555Z" fill="#D9D9D9"/>
<path d="M41.8308 0.491054C33.6711 0.491054 33.6177 14.5905 32.7905 26.4058C33.559 26.6459 34.2848 26.9288 34.9679 27.2436C36.2166 16.613 36.4621 4.84575 41.7347 4.84575C49.206 4.84575 50.7537 42.0261 50.7537 42.0261H46.1375C45.5985 42.0261 45.1662 42.4637 45.1662 42.9974C45.1662 43.5311 45.5718 43.9687 46.1375 43.9687H51.789C52.4347 43.9687 52.963 43.451 52.9684 42.7999C53.0377 35.9637 52.9363 0.485718 41.8308 0.485718V0.491054Z" fill="#D9D9D9"/>
<path d="M17.9974 29.1325C18.6859 28.775 19.4117 28.4548 20.1695 28.1826C20.1108 27.6116 20.0467 27.0459 19.9827 26.4802C19.1715 26.7524 18.403 27.0673 17.6772 27.4248C17.784 27.9852 17.8907 28.5562 17.9974 29.1325Z" fill="#D9D9D9"/>
<path d="M34.7487 28.9993C34.8234 28.4176 34.8982 27.8306 34.9675 27.2382C34.2844 26.9234 33.5587 26.6459 32.7902 26.4004C32.7475 26.9767 32.7048 27.5531 32.6621 28.1188C33.4039 28.3749 34.0977 28.6738 34.7487 28.9993Z" fill="#D9D9D9"/>
</svg>
