<svg width="170" height="27" viewBox="0 0 170 27" fill="none" xmlns="http://www.w3.org/2000/svg">
<g clip-path="url(#clip0_189_8392)">
<path d="M47.0524 26.911C44.9407 26.911 43.0686 26.4758 41.4378 25.6064C39.8062 24.7361 38.6156 23.466 37.8652 21.7961L42.1601 19.6733C42.5349 20.5083 43.1399 21.1467 43.9728 21.5869C44.8056 22.0279 45.8321 22.248 47.0524 22.248C47.8028 22.248 48.4665 22.1497 49.041 21.9523C49.6154 21.7557 50.0794 21.4651 50.4312 21.082C50.7831 20.699 50.959 20.2294 50.959 19.6725C50.959 19.0231 50.7712 18.53 50.3955 18.1932C50.0199 17.8572 49.5033 17.6077 48.8464 17.4456C48.1886 17.2835 47.4501 17.1322 46.6284 16.9928C45.7361 16.8307 44.803 16.6156 43.83 16.3494C42.8561 16.0831 41.9409 15.6941 41.0843 15.1834C40.2277 14.6735 39.541 13.983 39.0252 13.1127C38.5085 12.2425 38.251 11.1589 38.251 9.85934C38.251 8.46742 38.6258 7.23259 39.377 6.15316C40.1274 5.07457 41.1599 4.21691 42.4746 3.57849C43.7883 2.94091 45.2551 2.6217 46.8748 2.6217C48.8464 2.6217 50.6173 3.05684 52.1903 3.92626C53.7625 4.79652 54.9241 6.06664 55.6753 7.7366L51.3805 9.85934C51.0048 9.09408 50.4236 8.47918 49.6375 8.01465C48.8506 7.55096 47.8597 7.31911 46.6632 7.31911C46.0293 7.31911 45.4667 7.41235 44.9738 7.59716C44.4809 7.7828 44.0934 8.04909 43.8121 8.3977C43.5309 8.74547 43.3898 9.16296 43.3898 9.65017C43.3898 10.2768 43.5886 10.7699 43.988 11.1295C44.3866 11.489 44.9322 11.762 45.6248 11.9468C46.3165 12.1324 47.0856 12.3063 47.9303 12.4684C48.8217 12.6314 49.7429 12.8456 50.6938 13.1119C51.6439 13.379 52.5243 13.768 53.3341 14.2779C54.144 14.7886 54.8069 15.4732 55.3227 16.3309C55.8385 17.1894 56.0969 18.2915 56.0969 19.6364C56.0969 20.9812 55.6923 22.2757 54.8825 23.377C54.0726 24.4791 52.9874 25.3426 51.6261 25.9693C50.2647 26.5959 48.7393 26.9084 47.0499 26.9084L47.0524 26.911Z" fill="#D9D9D9"/>
<path d="M63.0327 26.459H58.0342V1.30115H63.0327V26.459ZM62.2228 19.6036V15.915H66.2713V19.6036H62.2228ZM76.0576 26.459H70.1081L65.2855 20.6133C64.5819 19.7321 64.2292 18.7812 64.2292 17.7597C64.2292 16.7382 64.5929 15.8344 65.3204 14.9759L70.143 9.23432H76.0924L68.7 17.9336C68.7 17.9109 68.7051 17.8874 68.7179 17.8639C68.7298 17.8412 68.7357 17.8059 68.7357 17.7597C68.7357 17.737 68.7238 17.69 68.7009 17.6203L76.0576 26.4581V26.459Z" fill="#D9D9D9"/>
<path d="M79.4712 6.65967C78.9078 6.65967 78.3851 6.5261 77.905 6.25982C77.424 5.99353 77.0484 5.62224 76.779 5.14679C76.5088 4.67133 76.3745 4.15472 76.3745 3.59862C76.3745 3.04253 76.5096 2.5318 76.779 2.06726C77.0484 1.60357 77.424 1.23228 77.905 0.954234C78.386 0.676187 78.9086 0.536743 79.4712 0.536743C80.0338 0.536743 80.5504 0.676187 81.0204 0.954234C81.4895 1.23228 81.8591 1.60357 82.1294 2.06726C82.3987 2.5318 82.5339 3.04169 82.5339 3.59862C82.5339 4.15556 82.3987 4.67217 82.1294 5.14679C81.8591 5.62224 81.4895 5.99353 81.0204 6.25982C80.5504 6.52694 80.0346 6.65967 79.4712 6.65967ZM76.9719 9.23433H81.9704V26.4582H76.9719V9.23433Z" fill="#D9D9D9"/>
<path d="M108.552 26.9454C107.918 26.9454 107.29 26.8119 106.669 26.5456C106.047 26.2793 105.508 25.8727 105.05 25.3276C104.593 24.7824 104.258 24.1045 104.048 23.2922L100.704 9.23441H105.385L108.412 22.3522C108.412 22.3757 108.418 22.3934 108.43 22.4043C108.442 22.416 108.471 22.4219 108.518 22.4219C108.566 22.4219 108.594 22.416 108.606 22.4043C108.618 22.3925 108.612 22.3866 108.588 22.3866L111.158 12.4005C111.51 11.1715 112.038 10.2492 112.742 9.63426C113.446 9.0202 114.338 8.71191 115.417 8.71191C116.496 8.71191 117.417 9.01348 118.11 9.61662C118.802 10.2206 119.301 11.1253 119.606 12.3307L122.176 22.3866C122.198 22.4102 122.21 22.427 122.21 22.4387C122.21 22.4505 122.233 22.4564 122.281 22.4564C122.351 22.4564 122.386 22.4505 122.386 22.4387V22.3514L125.308 9.23357H129.919L126.716 23.2913C126.528 24.1036 126.205 24.7824 125.748 25.3267C125.29 25.8719 124.75 26.2785 124.129 26.5447C123.507 26.811 122.879 26.9446 122.246 26.9446C121.236 26.9446 120.363 26.643 119.624 26.0399C118.884 25.4368 118.362 24.5211 118.057 23.2913L115.453 13.0263C115.476 13.0036 115.453 12.9918 115.382 12.9918C115.335 12.9918 115.324 13.0036 115.347 13.0263L112.743 23.2913C112.438 24.5211 111.916 25.4376 111.177 26.0399C110.437 26.643 109.563 26.9446 108.554 26.9446L108.552 26.9454Z" fill="#D9D9D9"/>
<path d="M138.474 26.9109C136.666 26.9109 135.042 26.522 133.599 25.745C132.156 24.9679 131.023 23.8894 130.202 22.5092C129.38 21.129 128.97 19.5229 128.97 17.69C128.97 16.0435 129.351 14.5298 130.114 13.1488C130.876 11.7687 131.938 10.6666 133.299 9.84334C134.66 9.02012 136.233 8.60767 138.017 8.60767C139.8 8.60767 141.443 9.00752 142.734 9.80806C144.024 10.6086 145.016 11.6695 145.708 12.9917C146.4 14.3139 146.747 15.7638 146.747 17.3414V18.803H132.948L133.722 17.585C133.674 18.5594 133.845 19.4288 134.233 20.1949C134.62 20.9602 135.171 21.5583 135.887 21.9867C136.603 22.416 137.453 22.6302 138.439 22.6302C139.425 22.6302 140.228 22.4101 140.991 21.9691C141.753 21.5289 142.335 20.914 142.734 20.1252L146.571 22.0388C145.82 23.5928 144.745 24.7941 143.35 25.64C141.954 26.4867 140.328 26.9101 138.475 26.9101L138.474 26.9109ZM134.004 16.0545H141.784C141.713 15.4513 141.508 14.912 141.168 14.4366C140.827 13.9611 140.388 13.5898 139.848 13.3236C139.308 13.0573 138.686 12.9237 137.983 12.9237C137.279 12.9237 136.615 13.0631 136.064 13.3412C135.512 13.6192 135.066 13.9972 134.726 14.4719C134.386 14.9473 134.146 15.4757 134.005 16.0553L134.004 16.0545Z" fill="#D9D9D9"/>
<path d="M91.0515 27C87.1908 27 84.1885 24.0826 84.1885 20.2664V0H89.2932V20.2664C89.2932 21.2996 90.1439 22.1405 91.1891 22.1405C92.2344 22.1405 93.085 21.2996 93.085 20.2664V16.8248L97.1377 16.8004V20.242C97.1377 24.0582 94.5832 27 91.0506 27H91.0515Z" fill="#D9D9D9"/>
<path d="M99.8742 26.9488C96.8379 26.9488 93.0537 24.0826 93.0537 20.2664V0H98.1585V20.2664C98.1585 21.2996 99.4136 22.1405 100.459 22.1405C101.504 22.1405 102.738 21.2786 102.738 20.2454V16.8038L106.567 16.8248V20.2664C106.567 24.0826 103.14 26.9488 99.8742 26.9488Z" fill="#D9D9D9"/>
<path d="M154.67 27C151.937 27 147.669 24.0826 147.669 20.2664V0H152.774V20.2664C152.774 21.2996 153.625 22.1405 154.67 22.1405C155.715 22.1405 156.567 21.2996 156.567 20.2664V16.8248H161.672V20.2664C161.672 24.0826 157.856 27 154.67 27Z" fill="#D9D9D9"/>
<path d="M163.535 27C161.015 27 156.534 24.0826 156.534 20.2664V0H161.638V20.2664C161.638 21.2996 162.489 22.1405 163.535 22.1405C164.581 22.1405 165.431 21.2996 165.431 20.2664V16.8248H169.999V20.2664C169.999 24.0826 167.269 27 163.534 27H163.535Z" fill="#D9D9D9"/>
<path d="M26.2739 18.6602C23.2367 13.6654 19.0081 10.2743 14.2237 8.64966C13.4138 8.37497 13.6076 7.19054 14.4642 7.1897C19.4211 7.18718 23.9463 8.68326 27.2537 12.2366C27.427 14.0502 27.2307 15.9285 26.6104 17.7681C26.5084 18.0714 26.3954 18.3687 26.2739 18.6602Z" fill="#D9D9D9"/>
<path d="M15.1297 4.63862C10.8926 4.53613 6.23063 5.4484 1.55078 7.25528C4.59562 1.47341 11.5198 -1.43055 17.974 0.69639C21.6987 1.92366 24.5311 4.58317 26.0556 7.84918C23.0371 5.83397 19.3566 4.74026 15.1297 4.63862Z" fill="#D9D9D9"/>
<path d="M24.2473 20.3076C24.4394 20.6343 24.6263 20.9636 24.8082 21.2954C24.317 21.9834 23.7655 22.6168 23.1638 23.193C22.9072 22.5101 22.6081 21.87 22.263 21.2837C20.9068 18.9761 19.3763 16.8761 17.743 15.0616C17.1328 14.3837 18.0506 13.411 18.7729 13.9696C20.8889 15.606 22.7338 17.7337 24.2465 20.3076H24.2473Z" fill="#D9D9D9"/>
<path d="M6.66896 13.9561C8.74078 15.4043 10.4905 17.2758 11.8706 19.5195C13.1878 21.6616 14.171 24.1531 14.8067 26.9521C13.0119 27.1033 11.1568 26.9042 9.33904 26.3052C3.01227 24.2212 -0.742995 18.0008 0.122951 11.6989C0.133999 11.6922 0.144196 11.6855 0.155244 11.6788C0.397437 11.5393 4.3677 12.3474 6.66811 13.9561H6.66896Z" fill="#D9D9D9"/>
<path d="M13.7582 18.2839C12.2005 15.7723 10.2188 13.6773 7.86991 12.0568C7.86057 12.0501 7.85122 12.0434 7.84102 12.0375C7.35408 11.7032 7.75264 10.9598 8.30501 11.174C9.11997 11.4907 9.94598 11.9098 10.7839 12.4323C14.1202 14.5139 17.4004 18.1143 20.0204 22.5722C20.4181 23.2493 20.7444 24.0255 21.0002 24.8806C19.7816 25.6484 18.444 26.2221 17.0393 26.5783C16.3424 23.4627 15.2445 20.6814 13.7582 18.2848V18.2839Z" fill="#D9D9D9"/>
</g>
<defs>
<clipPath id="clip0_189_8392">
<rect width="170" height="27" fill="white"/>
</clipPath>
</defs>
</svg>
