<svg width="215" height="52" viewBox="0 0 215 52" fill="none" xmlns="http://www.w3.org/2000/svg">
<g clip-path="url(#clip0_189_8353)">
<path d="M55.4121 31.5252C50.3209 31.5252 46.8342 29.4342 46.6431 24.9265C46.6431 24.7921 46.7548 24.6824 46.8919 24.6824H50.7932C50.9302 24.6824 51.042 24.7921 51.0708 24.9265C51.3485 27.0424 52.3148 28.4293 55.495 28.4293C58.0118 28.4293 59.3964 27.6969 59.3964 25.9031C59.3964 21.6148 47.0289 25.0079 47.0289 17.461C47.0289 13.9051 49.8521 11.6796 54.8027 11.6796C59.3387 11.6796 62.4648 13.3885 63.0489 17.461C63.0489 17.5954 62.966 17.7051 62.829 17.7051H58.9024C58.7654 17.7051 58.6536 17.5954 58.6247 17.461C58.4048 15.752 56.9914 14.8002 54.6405 14.8002C52.6501 14.8002 51.2115 15.4796 51.2115 17.0541C51.2115 21.0982 63.633 17.8148 63.633 25.3334C63.633 29.3492 60.4781 31.5217 55.4157 31.5217" fill="#D9D9D9"/>
<path d="M74.3093 30.5734C74.3093 30.7078 74.1975 30.8458 74.0894 30.8989C73.2889 31.1713 72.3731 31.3624 71.4897 31.3624C69.0847 31.3624 66.7879 30.1665 66.7879 26.9927L66.8167 19.9871H65.2122C65.0716 19.9871 64.9634 19.8774 64.9634 19.743V17.3547C64.9634 17.2203 65.0752 17.1106 65.2122 17.1106H66.8167L66.7879 13.8519C66.7879 13.7175 66.8996 13.6078 67.0366 13.6078H70.718C70.8551 13.6078 70.9668 13.7175 70.9668 13.8519L70.938 17.1106H74.093C74.2336 17.1106 74.3418 17.2203 74.3418 17.3547V19.743C74.3418 19.8774 74.23 19.9871 74.093 19.9871H70.9128L70.9416 26.883C70.9416 28.079 71.551 28.4575 72.4632 28.4575C73.1266 28.4575 73.6531 28.3479 74.0677 28.2134C74.2047 28.1851 74.3165 28.2948 74.3165 28.4045V30.5769L74.3093 30.5734Z" fill="#D9D9D9"/>
<path d="M81.0306 31.4155C78.0162 31.4155 76.0512 29.4058 76.0512 25.9844V23.0547L75.9971 17.3547C75.9971 17.2203 76.1088 17.1106 76.2459 17.1106H79.9525C80.0895 17.1106 80.2013 17.2203 80.2013 17.3547L80.1184 23.0547V25.9313C80.1184 27.4527 81.0594 28.4292 82.3034 28.4292C83.7962 28.4292 85.4007 27.0706 85.4007 24.0844V23.0547L85.3466 17.3547C85.3466 17.2203 85.4584 17.1106 85.5954 17.1106H89.3561C89.4931 17.1106 89.6049 17.2203 89.6049 17.3547L89.522 23.8154L89.5508 30.8458C89.5508 30.9803 89.439 31.09 89.302 31.09H85.7865C85.6495 31.09 85.5377 30.9803 85.5377 30.8458L85.6206 29.3244C84.6507 30.5451 83.0209 31.4155 81.027 31.4155" fill="#D9D9D9"/>
<path d="M102.03 31.09C101.893 31.09 101.781 30.9803 101.781 30.8459L101.864 29.4624C100.869 30.6583 99.4593 31.3624 97.66 31.3624C93.6217 31.3624 91.4907 28.2135 91.4907 24.141C91.4907 20.0686 93.8705 16.8382 97.743 16.8382C99.4845 16.8382 100.869 17.4362 101.835 18.5755L101.807 12.3306C101.807 12.1961 101.918 12.0864 102.055 12.0864H105.733C105.87 12.0864 105.982 12.1961 105.982 12.3306L105.928 21.5864L105.982 30.8423C105.982 30.9768 105.87 31.0865 105.733 31.0865H102.027L102.03 31.09ZM98.8211 28.6734C100.84 28.6734 101.918 27.1803 101.947 24.2224C101.976 21.2079 100.898 19.552 98.904 19.5272C96.8019 19.4741 95.7238 21.0486 95.7238 23.9535C95.7238 27.1025 96.8307 28.7053 98.8211 28.677" fill="#D9D9D9"/>
<path d="M121.814 26.3665C121.951 26.3665 122.063 26.4762 122.034 26.6107C121.674 29.1617 119.186 31.4438 115.201 31.4438C110.442 31.4438 107.871 28.3762 107.871 24.141C107.871 19.69 110.583 16.7568 115.119 16.7568C119.654 16.7568 122.395 19.7961 122.478 24.6824C122.478 24.8168 122.366 24.9265 122.229 24.9265H112.046C112.212 27.5589 113.265 28.7265 115.256 28.7265C116.64 28.7265 117.635 28.1002 118.021 26.6107C118.05 26.4762 118.187 26.3665 118.324 26.3665H121.811H121.814ZM115.147 19.4423C113.489 19.4423 112.49 20.4189 112.158 22.3472H117.996C117.83 20.8541 116.972 19.4423 115.147 19.4423Z" fill="#D9D9D9"/>
<path d="M124.609 31.09C124.472 31.09 124.36 30.9803 124.36 30.8459L124.443 24.3852L124.414 17.3548C124.414 17.2204 124.526 17.1107 124.663 17.1107H128.175C128.312 17.1107 128.423 17.2204 128.423 17.3548L128.341 18.8762C129.31 17.6555 130.94 16.7852 132.934 16.7852C135.949 16.7852 137.885 18.7948 137.885 22.2127V25.1459L137.968 30.8459C137.968 30.9803 137.856 31.09 137.719 31.09H134.012C133.875 31.09 133.763 30.9803 133.763 30.8459L133.818 25.1459V22.2693C133.818 20.7479 132.905 19.7714 131.661 19.7714C130.169 19.7714 128.564 21.13 128.564 24.1163V25.1459L128.618 30.8459C128.618 30.9803 128.506 31.09 128.369 31.09H124.605H124.609Z" fill="#D9D9D9"/>
<path d="M148.514 30.5734C148.514 30.7078 148.403 30.8458 148.294 30.8989C147.494 31.1713 146.578 31.3624 145.695 31.3624C143.29 31.3624 140.993 30.1665 140.993 26.9927L141.022 19.9871H139.417C139.28 19.9871 139.168 19.8774 139.168 19.743V17.3547C139.168 17.2203 139.28 17.1106 139.417 17.1106H141.022L140.993 13.8519C140.993 13.7175 141.105 13.6078 141.242 13.6078H144.923C145.06 13.6078 145.172 13.7175 145.172 13.8519L145.143 17.1106H148.298C148.439 17.1106 148.547 17.2203 148.547 17.3547V19.743C148.547 19.8774 148.435 19.9871 148.298 19.9871H145.118L145.147 26.883C145.147 28.079 145.756 28.4575 146.668 28.4575C147.332 28.4575 147.858 28.3479 148.273 28.2134C148.41 28.1851 148.522 28.2948 148.522 28.4045V30.5769L148.514 30.5734Z" fill="#D9D9D9"/>
<path d="M156.98 31.09C156.843 31.09 156.731 30.9803 156.731 30.8459L156.868 21.59L156.731 12.3341C156.731 12.1997 156.843 12.09 156.98 12.09H169.625C169.762 12.09 169.874 12.1997 169.874 12.3341V14.9134C169.874 15.0479 169.762 15.1576 169.625 15.1576H161.022L160.91 20.3693H169.236C169.373 20.3693 169.485 20.479 169.485 20.6134V23.1928C169.485 23.3272 169.373 23.4369 169.236 23.4369H160.91L161.022 30.8494C161.022 30.9839 160.91 31.0935 160.773 31.0935H156.984L156.98 31.09Z" fill="#D9D9D9"/>
<path d="M171.976 15.752C171.839 15.752 171.728 15.6423 171.728 15.5078V12.3306C171.728 12.1961 171.839 12.0864 171.976 12.0864H175.683C175.82 12.0864 175.932 12.1961 175.932 12.3306V15.5078C175.932 15.6423 175.82 15.752 175.683 15.752H171.976ZM171.976 31.09C171.839 31.09 171.728 30.9803 171.728 30.8459L171.81 24.1127L171.728 17.3512C171.728 17.2168 171.839 17.1071 171.976 17.1071H175.712C175.849 17.1071 175.961 17.2168 175.961 17.3512L175.878 24.1127L175.961 30.8459C175.961 30.9803 175.849 31.09 175.712 31.09H171.976Z" fill="#D9D9D9"/>
<path d="M178.477 31.09C178.34 31.09 178.229 30.9803 178.229 30.8459L178.34 24.0844L178.229 17.3513C178.229 17.2168 178.34 17.1071 178.477 17.1071H182.13C182.267 17.1071 182.379 17.2168 182.379 17.3513L182.267 19.4671C183.374 17.8112 185.281 16.9974 187.358 16.9974C187.578 16.9974 187.802 17.0257 187.993 17.0505C188.13 17.0788 188.241 17.2133 188.241 17.3477V19.874C188.241 20.0084 188.13 20.0898 187.993 20.0898C187.827 20.0615 187.632 20.0615 187.466 20.0615C184.535 20.0615 182.35 21.6643 182.375 24.8664V30.8388C182.375 30.9733 182.263 31.0829 182.126 31.0829H178.474L178.477 31.09Z" fill="#D9D9D9"/>
<path d="M196.214 31.4155C192.064 31.4155 189.41 29.7597 189.27 26.639C189.27 26.5045 189.381 26.3949 189.518 26.3949H193.059C193.196 26.3949 193.308 26.5045 193.308 26.639C193.42 28.2135 194.469 28.8928 196.405 28.8928C198.039 28.8928 198.922 28.2701 198.922 27.1839C198.922 24.5232 189.598 27.1025 189.598 21.2397C189.598 18.3349 191.977 16.7887 195.821 16.7887C199.665 16.7887 202.073 18.2535 202.322 21.1867C202.351 21.3211 202.239 21.4308 202.102 21.4308H198.727C198.59 21.4308 198.478 21.3211 198.45 21.1867C198.23 19.9908 197.454 19.2583 195.767 19.2583C194.411 19.2583 193.553 19.7466 193.553 20.9425C193.553 23.6032 202.877 20.8894 202.877 26.8336C202.877 29.7667 200.054 31.4226 196.21 31.4226" fill="#D9D9D9"/>
<path d="M213.117 30.5734C213.117 30.7078 213.006 30.8458 212.897 30.8989C212.097 31.1713 211.181 31.3624 210.298 31.3624C207.893 31.3624 205.596 30.1665 205.596 26.9927L205.625 19.9871H204.02C203.883 19.9871 203.771 19.8774 203.771 19.743V17.3547C203.771 17.2203 203.883 17.1106 204.02 17.1106H205.625L205.596 13.8519C205.596 13.7175 205.708 13.6078 205.845 13.6078L209.746 17.1106L213.15 19.743C213.15 19.8774 213.038 19.9871 212.901 19.9871H209.721L209.75 26.883C209.75 28.079 210.359 28.4575 211.271 28.4575C211.935 28.4575 212.461 28.3479 212.876 28.2134C213.013 28.1851 213.125 28.2948 213.125 28.4045V30.5769L213.117 30.5734Z" fill="#D9D9D9"/>
<path d="M206.461 12.2916L214.026 18.7559V13.3248C214.026 12.6242 213.435 12.0652 212.721 12.0864L206.461 12.2916Z" fill="#D9D9D9"/>
<path d="M18.2446 8.2157L10.103 8.30061C7.64749 8.32538 5.66797 10.2891 5.66797 12.6986V29.3103L18.2446 8.2157Z" fill="#D9D9D9"/>
<path d="M19.8457 11.1276L0 44.5174H12.2701C16.4563 44.5174 19.8457 41.188 19.8457 37.0837V11.1276Z" fill="#D9D9D9"/>
<path d="M24.8613 36.1708H32.0979C34.7265 36.1708 36.8574 34.0762 36.8538 31.4969L36.8286 15.6034L24.8613 36.1673V36.1708Z" fill="#D9D9D9"/>
<path d="M22.6833 33.7755L42.7958 0H29.7973C25.8671 0 22.6797 3.12775 22.6797 6.98437V33.7755H22.6833Z" fill="#D9D9D9"/>
</g>
<g clip-path="url(#clip1_189_8353)">
<path d="M78.9272 49.063C78.8434 49.063 78.8038 49.0257 78.8038 48.9551L78.8831 44.3444L78.8258 40.8085H76.0228C75.9479 40.8085 75.9082 40.7712 75.9082 40.7006V39.6714C75.9082 39.6008 75.9479 39.5635 76.0228 39.5635H83.4269C83.4666 39.5635 83.4974 39.5759 83.5195 39.5925C83.5415 39.6133 83.5503 39.6382 83.5503 39.6714V40.6965C83.5503 40.7297 83.5415 40.7546 83.5195 40.7753C83.4974 40.7961 83.4666 40.8044 83.4269 40.8044H80.6239L80.571 44.3402L80.6416 48.951C80.6416 49.0215 80.6019 49.0589 80.527 49.0589H78.9227L78.9272 49.063Z" fill="#D9D9D9"/>
<path d="M90.3242 42.6428C90.7738 43.1326 90.9941 43.8713 90.9897 44.859L90.9809 46.3032L91.0162 48.951C91.0162 49.0215 90.9765 49.0589 90.8927 49.0589H89.3678C89.2841 49.0589 89.2489 49.0215 89.2533 48.951L89.2841 46.324V44.6971C89.2797 44.1659 89.1563 43.7717 88.9183 43.5102C88.6803 43.2488 88.3586 43.116 87.9619 43.116C87.5653 43.116 87.1642 43.2612 86.8205 43.5517C86.4767 43.8422 86.2255 44.2489 86.0668 44.7677L86.1109 48.9468C86.1109 49.0174 86.0712 49.0547 85.9963 49.0547H84.5067C84.4318 49.0547 84.3921 49.0174 84.3921 48.9468L84.4406 44.2614L84.3921 39.6672C84.3921 39.5967 84.4318 39.5593 84.5067 39.5593H85.9963C86.0712 39.5593 86.1109 39.5967 86.1109 39.6672L86.0757 43.0371C86.3357 42.6843 86.6618 42.4063 87.0496 42.2071C87.4419 42.0079 87.8958 41.9041 88.4071 41.9041C89.2356 41.9041 89.8791 42.149 90.3286 42.6345L90.3242 42.6428Z" fill="#D9D9D9"/>
<path d="M93.7223 45.8466C93.7576 46.6186 93.9339 47.1954 94.26 47.5648C94.5862 47.9383 95.0577 48.125 95.6747 48.125C96.6091 48.125 97.182 47.6727 97.3892 46.768C97.4024 46.7016 97.442 46.6642 97.5126 46.6642H98.9449C98.9846 46.6642 99.0154 46.6725 99.0375 46.6891C99.0595 46.7057 99.0727 46.7265 99.0639 46.7555C98.9978 47.2203 98.8215 47.6395 98.5306 48.013C98.2442 48.3865 97.8519 48.6811 97.3583 48.897C96.8647 49.1128 96.2962 49.2207 95.6483 49.2207C94.8726 49.2207 94.2027 49.0671 93.6474 48.7641C93.0921 48.457 92.6734 48.0296 92.3914 47.4818C92.1093 46.934 91.9683 46.299 91.9683 45.5852C91.9683 44.8714 92.1137 44.2074 92.4046 43.6554C92.6955 43.1034 93.1141 42.6718 93.6606 42.3647C94.2071 42.0576 94.8506 41.9082 95.591 41.9082C96.3314 41.9082 97.0013 42.0618 97.539 42.3647C98.0767 42.6677 98.4954 43.1117 98.7818 43.6844C99.0683 44.2572 99.2226 44.9419 99.2358 45.7346C99.2358 45.7678 99.227 45.7927 99.2049 45.8134C99.1829 45.8342 99.152 45.8425 99.1168 45.8425H93.7223V45.8466ZM94.3658 43.4603C94.0573 43.7674 93.859 44.2074 93.7664 44.7884H97.3671C97.3451 44.4605 97.2613 44.1576 97.1247 43.8878C96.9881 43.618 96.7898 43.4022 96.5341 43.2445C96.2785 43.0827 95.97 43.0038 95.6086 43.0038C95.0842 43.0038 94.6699 43.1574 94.3614 43.4603H94.3658Z" fill="#D9D9D9"/>
<path d="M103.304 49.063C103.229 49.063 103.189 49.0257 103.189 48.9551L103.237 44.3236L103.189 39.6755C103.189 39.605 103.229 39.5676 103.304 39.5676H109.562C109.646 39.5676 109.685 39.605 109.685 39.6755V40.7006C109.685 40.7338 109.676 40.7587 109.654 40.7795C109.632 40.8002 109.601 40.8085 109.562 40.8085H104.974L104.93 43.8215H109.346C109.421 43.8215 109.46 43.8588 109.46 43.9377V44.9544C109.46 45.025 109.421 45.0623 109.346 45.0623H104.93L104.974 48.9551C104.974 49.0257 104.934 49.063 104.859 49.063H103.304Z" fill="#D9D9D9"/>
<path d="M111.787 48.9053C111.408 48.6936 111.113 48.3824 110.91 47.9673C110.703 47.5565 110.602 47.0585 110.602 46.4733V45.0498L110.566 42.1821C110.566 42.1116 110.606 42.0742 110.69 42.0742H112.21C112.285 42.0742 112.325 42.1116 112.325 42.1821L112.294 45.0498V46.4318C112.294 46.9381 112.417 47.3282 112.664 47.598C112.911 47.8677 113.237 48.0047 113.647 48.0047C113.947 48.0047 114.224 47.9258 114.484 47.764C114.744 47.6021 114.965 47.3614 115.141 47.0419C115.317 46.7223 115.428 46.3281 115.476 45.8674V45.0457L115.445 42.178C115.445 42.1074 115.485 42.0701 115.569 42.0701H117.111C117.186 42.0701 117.226 42.1074 117.226 42.178L117.19 45.332L117.204 48.9468C117.204 49.0173 117.164 49.0547 117.089 49.0547H115.639C115.564 49.0547 115.525 49.0173 115.529 48.9385L115.56 48.0005C115.304 48.3575 114.969 48.648 114.546 48.8762C114.127 49.1003 113.656 49.2165 113.131 49.2165C112.607 49.2165 112.162 49.1086 111.783 48.897L111.787 48.9053Z" fill="#D9D9D9"/>
<path d="M119.747 48.6729C119.328 48.3325 119.121 47.8013 119.121 47.0792L119.134 44.0289V43.2404H118.292C118.253 43.2404 118.222 43.2321 118.2 43.2113C118.178 43.1906 118.169 43.1657 118.169 43.1325V42.1821C118.169 42.1489 118.178 42.124 118.2 42.1033C118.222 42.0825 118.253 42.0742 118.292 42.0742H119.13L119.116 40.4308C119.116 40.3602 119.156 40.3229 119.231 40.3229H120.743C120.827 40.3229 120.866 40.3602 120.866 40.4308L120.853 42.0742H122.541C122.616 42.0742 122.656 42.1116 122.656 42.1821V43.1325C122.656 43.203 122.616 43.2404 122.541 43.2404H120.849V44.0123L120.857 47.0377C120.857 47.3905 120.928 47.6395 121.069 47.7847C121.21 47.93 121.426 48.0005 121.721 48.0005C122.016 48.0005 122.281 47.9673 122.514 47.8968C122.523 47.8926 122.537 47.8885 122.559 47.8885C122.62 47.8885 122.651 47.9258 122.651 47.9964V48.8596C122.651 48.9177 122.625 48.9592 122.563 48.98C122.122 49.1128 121.717 49.175 121.351 49.175C120.703 49.175 120.17 49.0049 119.751 48.6646L119.747 48.6729Z" fill="#D9D9D9"/>
<path d="M124.754 48.9053C124.374 48.6936 124.079 48.3824 123.876 47.9673C123.669 47.5565 123.568 47.0585 123.568 46.4733V45.0498L123.533 42.1821C123.533 42.1116 123.572 42.0742 123.656 42.0742H125.177C125.252 42.0742 125.291 42.1116 125.291 42.1821L125.26 45.0498V46.4318C125.26 46.9381 125.384 47.3282 125.631 47.598C125.877 47.8677 126.203 48.0047 126.613 48.0047C126.909 48.0047 127.191 47.9258 127.451 47.764C127.711 47.6021 127.931 47.3614 128.107 47.0419C128.284 46.7223 128.394 46.3281 128.442 45.8674V45.0457L128.416 42.178C128.416 42.1074 128.456 42.0701 128.539 42.0701H130.082C130.157 42.0701 130.196 42.1074 130.196 42.178L130.161 45.332L130.174 48.9468C130.174 49.0173 130.135 49.0547 130.06 49.0547H128.61C128.535 49.0547 128.495 49.0173 128.5 48.9385L128.531 48.0005C128.275 48.3575 127.94 48.648 127.517 48.8762C127.098 49.1003 126.627 49.2165 126.102 49.2165C125.578 49.2165 125.133 49.1086 124.754 48.897V48.9053Z" fill="#D9D9D9"/>
<path d="M131.536 49.063C131.452 49.063 131.413 49.0256 131.413 48.9551L131.457 45.5312L131.413 42.1863C131.413 42.1157 131.452 42.0784 131.536 42.0784H133.026C133.101 42.0784 133.14 42.1157 133.14 42.1946L133.087 43.3192C133.356 42.9001 133.718 42.5764 134.176 42.3523C134.634 42.1282 135.132 42.0161 135.674 42.0161C135.824 42.0161 135.956 42.0286 136.08 42.0576C136.146 42.0701 136.181 42.1116 136.181 42.178V43.1823C136.181 43.2196 136.172 43.2445 136.15 43.2653C136.128 43.2819 136.097 43.2902 136.062 43.286C135.97 43.2694 135.855 43.2611 135.714 43.2611C135.238 43.2611 134.811 43.3483 134.432 43.5226C134.053 43.6969 133.748 43.9584 133.515 44.3111C133.286 44.6597 133.158 45.0913 133.131 45.6018L133.145 48.9592C133.145 49.0298 133.105 49.0671 133.03 49.0671H131.532L131.536 49.063Z" fill="#D9D9D9"/>
<path d="M138.134 45.8466C138.169 46.6186 138.345 47.1954 138.672 47.5648C138.998 47.9383 139.469 48.125 140.086 48.125C141.021 48.125 141.594 47.6727 141.801 46.768C141.814 46.7016 141.854 46.6642 141.924 46.6642H143.357C143.396 46.6642 143.427 46.6725 143.449 46.6891C143.471 46.7057 143.484 46.7265 143.48 46.7555C143.414 47.2203 143.233 47.6395 142.947 48.013C142.66 48.3865 142.268 48.6811 141.774 48.897C141.281 49.1128 140.712 49.2207 140.064 49.2207C139.284 49.2207 138.619 49.0671 138.063 48.7641C137.508 48.457 137.089 48.0296 136.807 47.4818C136.525 46.934 136.384 46.299 136.384 45.5852C136.384 44.8714 136.53 44.2074 136.821 43.6554C137.111 43.1034 137.53 42.6718 138.077 42.3647C138.623 42.0576 139.267 41.9082 140.007 41.9082C140.747 41.9082 141.417 42.0618 141.955 42.3647C142.493 42.6718 142.911 43.1117 143.198 43.6844C143.484 44.2572 143.639 44.9419 143.652 45.7346C143.652 45.7678 143.643 45.7927 143.621 45.8134C143.599 45.8342 143.568 45.8425 143.528 45.8425H138.134V45.8466ZM138.773 43.4603C138.464 43.7674 138.266 44.2074 138.174 44.7884H141.774C141.752 44.4605 141.669 44.1576 141.532 43.8878C141.395 43.618 141.197 43.4022 140.941 43.2445C140.686 43.0827 140.377 43.0038 140.016 43.0038C139.491 43.0038 139.077 43.1574 138.769 43.4603H138.773Z" fill="#D9D9D9"/>
<path d="M144.542 45.7596C144.458 45.7596 144.418 45.7222 144.418 45.6434V44.7054C144.418 44.6349 144.458 44.5975 144.542 44.5975H147.913C147.993 44.5975 148.037 44.6349 148.037 44.7054V45.6434C148.037 45.6807 148.024 45.7098 148.006 45.7264C147.984 45.7471 147.953 45.7554 147.918 45.7554H144.546L144.542 45.7596Z" fill="#D9D9D9"/>
<path d="M157.015 48.9261C157.028 48.9551 157.037 48.9759 157.037 48.9925C157.037 49.0381 157.001 49.0589 156.935 49.0589H155.15C155.084 49.0589 155.036 49.034 155.005 48.9842L153.868 47.2079L152.594 45.3363H150.8L150.836 48.951C150.836 49.0215 150.796 49.0589 150.721 49.0589H149.165C149.09 49.0589 149.051 49.0215 149.051 48.951L149.095 44.2365L149.051 39.6714C149.051 39.6008 149.09 39.5635 149.165 39.5635H152.978C154.203 39.5635 155.15 39.8083 155.816 40.298C156.481 40.7878 156.816 41.5016 156.816 42.4436C156.816 43.1658 156.609 43.7592 156.195 44.2199C155.781 44.6805 155.199 45.0001 154.45 45.1702L157.015 48.9302V48.9261ZM150.827 40.7836L150.792 44.0248V44.112H153.119C153.722 44.112 154.207 43.9792 154.569 43.7136C154.93 43.448 155.111 43.033 155.111 42.4727C155.111 41.9124 154.934 41.4974 154.586 41.2111C154.238 40.9247 153.736 40.7836 153.088 40.7836H150.831H150.827Z" fill="#D9D9D9"/>
<path d="M159.152 45.8466C159.187 46.6186 159.364 47.1954 159.69 47.5648C160.016 47.9383 160.487 48.125 161.104 48.125C162.039 48.125 162.612 47.6727 162.819 46.768C162.832 46.7016 162.872 46.6642 162.942 46.6642H164.375C164.414 46.6642 164.445 46.6725 164.467 46.6891C164.489 46.7057 164.502 46.7265 164.494 46.7555C164.427 47.2203 164.247 47.6395 163.96 48.013C163.674 48.3865 163.282 48.6811 162.788 48.897C162.294 49.1128 161.726 49.2207 161.078 49.2207C160.302 49.2207 159.632 49.0671 159.077 48.7641C158.522 48.457 158.103 48.0296 157.821 47.4818C157.539 46.934 157.398 46.299 157.398 45.5852C157.398 44.8714 157.543 44.2074 157.834 43.6554C158.125 43.1034 158.544 42.6718 159.09 42.3647C159.637 42.0576 160.28 41.9082 161.021 41.9082C161.761 41.9082 162.431 42.0618 162.969 42.3647C163.511 42.6718 163.925 43.1117 164.212 43.6844C164.498 44.2572 164.652 44.9419 164.665 45.7346C164.665 45.7678 164.657 45.7927 164.635 45.8134C164.613 45.8342 164.582 45.8425 164.546 45.8425H159.152V45.8466ZM159.795 43.4603C159.487 43.7674 159.289 44.2074 159.196 44.7884H162.797C162.775 44.4605 162.691 44.1576 162.554 43.8878C162.418 43.618 162.219 43.4022 161.964 43.2445C161.708 43.0827 161.4 43.0038 161.038 43.0038C160.514 43.0038 160.1 43.1574 159.791 43.4603H159.795Z" fill="#D9D9D9"/>
<path d="M172.572 45.5354L172.607 48.9551C172.607 49.0256 172.567 49.063 172.492 49.063H170.994C170.954 49.063 170.923 49.0547 170.906 49.0339C170.884 49.0132 170.875 48.9883 170.879 48.9551L170.901 48.0586C170.646 48.4197 170.328 48.6978 169.941 48.897C169.553 49.092 169.112 49.1916 168.618 49.1916C167.949 49.1916 167.38 49.0339 166.908 48.7185C166.437 48.4031 166.08 47.9756 165.837 47.4278C165.595 46.8842 165.472 46.2658 165.472 45.581C165.472 44.8963 165.599 44.2862 165.86 43.7342C166.115 43.1823 166.485 42.7465 166.966 42.4228C167.446 42.0991 168.01 41.9373 168.654 41.9373C169.65 41.9373 170.399 42.2983 170.901 43.0246L170.866 42.1904C170.866 42.1116 170.906 42.0742 170.981 42.0742H172.492C172.567 42.0742 172.607 42.1116 172.607 42.1821L172.572 45.5312V45.5354ZM170.456 47.4569C170.778 47.0336 170.937 46.4028 170.937 45.5686C170.937 44.7344 170.778 44.1451 170.465 43.7052C170.152 43.2694 169.703 43.0495 169.121 43.0453C168.504 43.037 168.041 43.2487 167.719 43.6803C167.402 44.1119 167.239 44.7137 167.239 45.4897C167.239 46.3114 167.393 46.9547 167.706 47.4112C168.019 47.8677 168.473 48.096 169.068 48.096C169.663 48.096 170.13 47.8843 170.452 47.461L170.456 47.4569Z" fill="#D9D9D9"/>
<path d="M180.712 44.029L180.743 48.9551C180.743 49.0257 180.703 49.063 180.628 49.063H179.116C179.037 49.063 179.002 49.0257 179.002 48.9468L179.037 48.067C178.777 48.4281 178.455 48.7061 178.072 48.9053C177.689 49.1004 177.248 49.2 176.754 49.2C176.093 49.2 175.525 49.0423 175.049 48.7269C174.577 48.4115 174.216 47.984 173.973 47.4362C173.731 46.8884 173.607 46.27 173.607 45.5853C173.607 44.9005 173.735 44.2904 173.995 43.7385C174.251 43.1865 174.621 42.7466 175.101 42.4229C175.582 42.0992 176.146 41.9373 176.789 41.9373C177.274 41.9373 177.702 42.0245 178.076 42.2071C178.451 42.3855 178.759 42.647 179.011 42.9915L179.002 39.6797C179.002 39.6091 179.042 39.5718 179.116 39.5718H180.628C180.703 39.5718 180.743 39.6091 180.743 39.6797L180.712 44.0331V44.029ZM178.588 47.4652C178.909 47.0419 179.068 46.4111 179.068 45.5811C179.068 44.7511 178.905 44.1244 178.588 43.6845C178.266 43.2446 177.808 43.0247 177.217 43.0247C176.626 43.0247 176.155 43.2446 175.842 43.6804C175.529 44.1161 175.375 44.722 175.375 45.5023C175.375 46.324 175.529 46.9631 175.842 47.4196C176.155 47.8761 176.609 48.1044 177.204 48.1044C177.799 48.1044 178.266 47.8927 178.588 47.4652Z" fill="#D9D9D9"/>
<path d="M186.821 42.1697C186.843 42.1074 186.887 42.0742 186.948 42.0742H188.473C188.513 42.0742 188.539 42.0867 188.562 42.1074C188.579 42.1282 188.584 42.1614 188.57 42.2029L185.243 51.2791C185.221 51.3372 185.172 51.3663 185.106 51.3663H183.7C183.656 51.3663 183.625 51.3538 183.608 51.3331C183.59 51.3123 183.586 51.2791 183.599 51.2376L184.397 49.1003L181.453 42.2029C181.444 42.1738 181.439 42.1614 181.439 42.1572C181.439 42.1365 181.448 42.1157 181.466 42.0991C181.484 42.0825 181.51 42.0742 181.545 42.0742H183.246C183.317 42.0742 183.365 42.1033 183.383 42.1614L185.247 47.017L186.816 42.1655L186.821 42.1697Z" fill="#D9D9D9"/>
<path d="M194.04 48.8763C193.396 48.6273 192.894 48.2579 192.532 47.764C192.171 47.2702 191.973 46.6643 191.946 45.938V45.9255C191.946 45.8591 191.986 45.8218 192.061 45.8218H193.665C193.74 45.8218 193.784 45.8591 193.789 45.9297C193.855 46.6062 194.084 47.1208 194.476 47.4694C194.868 47.818 195.494 47.9923 196.358 47.9923C197.09 47.9923 197.649 47.8678 198.046 47.6146C198.443 47.3615 198.641 46.9755 198.641 46.4443C198.641 46.1082 198.522 45.8425 198.279 45.6475C198.041 45.4524 197.742 45.303 197.385 45.2034C197.028 45.1038 196.539 44.9959 195.908 44.8839C195.102 44.7386 194.45 44.5892 193.952 44.4315C193.454 44.2738 193.03 44.0165 192.673 43.6555C192.316 43.2944 192.14 42.7964 192.14 42.1614C192.14 41.5804 192.294 41.0824 192.603 40.6674C192.911 40.2524 193.361 39.9287 193.943 39.7087C194.525 39.4888 195.216 39.3767 196.014 39.3767C197.209 39.3767 198.165 39.6133 198.874 40.0905C199.584 40.5678 200.003 41.2899 200.126 42.261V42.2735C200.126 42.3399 200.091 42.3772 200.02 42.3772H198.407C198.341 42.3772 198.297 42.3399 198.284 42.2693C198.231 41.734 198.006 41.3314 197.614 41.0575C197.222 40.7836 196.666 40.6466 195.948 40.6466C195.305 40.6466 194.798 40.7587 194.428 40.9869C194.057 41.2152 193.872 41.5555 193.872 42.012C193.872 42.3191 193.987 42.564 194.22 42.7466C194.454 42.9292 194.74 43.0661 195.089 43.1616C195.437 43.2529 195.917 43.3566 196.525 43.4645C197.35 43.6098 198.019 43.7634 198.531 43.9211C199.042 44.0788 199.483 44.3444 199.844 44.7137C200.21 45.0831 200.391 45.5894 200.391 46.2368C200.391 46.8842 200.223 47.432 199.888 47.8802C199.553 48.3285 199.082 48.6688 198.469 48.9012C197.856 49.1336 197.134 49.2456 196.305 49.2456C195.432 49.2456 194.67 49.1211 194.027 48.8721L194.04 48.8763Z" fill="#D9D9D9"/>
<path d="M201.646 49.063C201.571 49.063 201.532 49.0257 201.532 48.9551L201.589 44.2697L201.532 39.6755C201.532 39.605 201.571 39.5676 201.646 39.5676H203.193C203.268 39.5676 203.308 39.605 203.308 39.6755L203.251 44.2697L203.308 48.9551C203.308 49.0257 203.268 49.063 203.193 49.063H201.646Z" fill="#D9D9D9"/>
<path d="M206.525 48.8763C205.882 48.6273 205.379 48.2579 205.018 47.764C204.656 47.2702 204.458 46.6643 204.432 45.938V45.9255C204.432 45.8591 204.471 45.8218 204.546 45.8218H206.15C206.225 45.8218 206.269 45.8591 206.274 45.9297C206.34 46.6062 206.569 47.1208 206.961 47.4694C207.354 47.818 207.979 47.9923 208.848 47.9923C209.579 47.9923 210.139 47.8678 210.536 47.6146C210.932 47.3656 211.131 46.9755 211.131 46.4443C211.131 46.1082 211.012 45.8425 210.769 45.6475C210.531 45.4524 210.232 45.303 209.875 45.2034C209.518 45.1038 209.028 44.9959 208.398 44.8839C207.592 44.7386 206.939 44.5892 206.441 44.4315C205.943 44.2738 205.516 44.0165 205.163 43.6555C204.806 43.2944 204.63 42.7964 204.63 42.1614C204.63 41.5804 204.784 41.0824 205.093 40.6674C205.401 40.2524 205.851 39.9287 206.433 39.7087C207.014 39.4888 207.706 39.3767 208.504 39.3767C209.698 39.3767 210.655 39.6133 211.364 40.0905C212.074 40.5636 212.492 41.2899 212.616 42.261V42.2735C212.616 42.3399 212.581 42.3772 212.506 42.3772H210.893C210.827 42.3772 210.782 42.3399 210.769 42.2693C210.716 41.734 210.492 41.3314 210.099 41.0575C209.707 40.7836 209.152 40.6466 208.433 40.6466C207.79 40.6466 207.283 40.7587 206.913 40.9869C206.543 41.211 206.358 41.5555 206.358 42.012C206.358 42.3191 206.472 42.564 206.701 42.7466C206.931 42.9292 207.221 43.0661 207.57 43.1616C207.918 43.2529 208.398 43.3566 209.006 43.4645C209.83 43.6098 210.5 43.7634 211.012 43.9211C211.523 44.0829 211.964 44.3444 212.325 44.7137C212.691 45.0831 212.871 45.5894 212.871 46.2368C212.871 46.8842 212.704 47.432 212.369 47.8802C212.034 48.3285 211.563 48.6688 210.95 48.9012C210.337 49.1336 209.615 49.2456 208.786 49.2456C207.913 49.2456 207.151 49.1211 206.507 48.8721L206.525 48.8763Z" fill="#D9D9D9"/>
</g>
<defs>
<clipPath id="clip0_189_8353">
<rect width="214.026" height="44.5174" fill="white"/>
</clipPath>
<clipPath id="clip1_189_8353">
<rect width="136.977" height="11.9855" fill="white" transform="translate(75.9082 39.3809)"/>
</clipPath>
</defs>
</svg>
