<svg width="170" height="40" viewBox="0 0 170 40" fill="none" xmlns="http://www.w3.org/2000/svg">
<path d="M7.26449 22.1072H9.78105L12.7467 13.9765L15.7088 22.0965H18.229L24.0498 6.1488H22.5812L17.8654 19.1058L12.9642 6.1595H9.9058L12.0196 11.9625L9.41747 19.113L4.51625 6.17019L0 6.17732V6.69418C1.79652 6.98647 1.77513 7.0435 2.25278 8.34811L7.26806 22.1072H7.26449Z" fill="#D9D9D9"/>
<path d="M60.5896 20.9417C59.5274 20.9417 58.9962 20.3499 58.9927 19.1665L58.982 6.11682H55.8809L55.8951 22.0574L65.3411 22.0467V20.9345L60.5932 20.9417H60.5896Z" fill="#D9D9D9"/>
<path d="M48.8519 14.6931C51.4041 14.3758 52.8264 13.0748 52.8264 10.3657C52.8264 6.12752 47.9037 6.13464 46.1251 6.13464L40.8745 6.14177L40.8888 22.0788H43.9899L43.9756 7.24678H45.9575C47.9537 7.24678 49.4222 7.95968 49.4258 10.5154C49.4258 13.4241 47.2657 13.9873 45.7258 13.9873H45.323L50.4132 22.0681H53.8137L48.8519 14.6931Z" fill="#D9D9D9"/>
<path d="M72.8373 6.10978L67.3408 6.11691L67.3551 22.0539L72.0709 22.0467C76.7013 22.0396 80.665 21.5156 80.6579 14.0337C80.6507 7.33241 77.3536 6.10264 72.8409 6.10621M72.0959 20.9346C70.4562 20.9346 70.4562 20.2966 70.4562 19.3734L70.4455 7.22191H72.3953C76.8617 7.21478 77.3607 9.89173 77.3643 14.0872C77.3714 18.8672 76.4232 20.9311 72.0995 20.9346" fill="#D9D9D9"/>
<path d="M31.243 5.59632C25.6075 5.60345 24.0462 8.91489 24.0498 14.1868C24.0569 19.4587 25.6182 22.6454 31.2573 22.6419C36.6611 22.6347 38.2936 19.4445 38.2901 14.1726C38.2829 8.90063 36.6504 5.59275 31.243 5.59632ZM31.243 21.4763C27.6892 21.4763 27.4112 17.3984 27.4076 14.1155C27.4076 10.8362 27.6785 6.75835 31.2288 6.75479C34.7184 6.75479 34.9252 10.9288 34.9323 14.1048C34.9323 17.2915 34.7327 21.4656 31.2466 21.4691" fill="#D9D9D9"/>
<path d="M109.616 6.07412L109.627 16.4362C109.627 18.8315 109.531 21.4586 105.603 21.4622C102.209 21.4622 102.206 18.8422 102.202 16.4433L102.191 6.08125H99.0903L99.101 17.0814C99.101 21.3873 101.422 22.5743 105.599 22.5707C111.235 22.5636 111.331 19.0525 111.331 15.8801L111.32 6.07056H109.613L109.616 6.07412Z" fill="#D9D9D9"/>
<path d="M156.315 7.1434L156.311 6.02771L143.476 6.0384V7.15409L148.345 7.15053L148.355 21.9718L151.457 21.9682L151.442 7.14697L156.315 7.1434Z" fill="#D9D9D9"/>
<path d="M140.57 6.04543L140.581 18.9312H140.527L133.038 6.05256L129.919 6.05613L129.93 21.9931L131.427 21.9895L131.413 8.51208H131.463L139.308 21.9824L142.082 21.9788L142.067 6.04187L140.57 6.04543Z" fill="#D9D9D9"/>
<path d="M126.797 6.05615L124.972 11.0821L119.083 11.0893L117.184 6.06685L112.671 6.07398V6.59083C114.467 6.88312 114.442 6.94015 114.924 8.24477L119.939 22.0038H122.456L128.273 6.05615H126.801H126.797ZM122.085 19.0132L119.508 12.1978L124.562 12.1907L122.081 19.0096L122.085 19.0132Z" fill="#D9D9D9"/>
<path d="M90.0114 21.4192C86.4576 21.4192 86.176 17.3414 86.1724 14.0585C86.1724 10.7791 86.4433 6.70132 89.9972 6.69775C93.4833 6.69775 93.6936 10.8754 93.6936 14.0478C93.6936 17.2202 93.494 21.4085 90.0079 21.4121M97.062 14.1191C97.0549 8.84716 95.4224 5.53929 90.015 5.54285C84.3723 5.54998 82.8182 8.86142 82.8218 14.1333C82.8289 19.4053 84.3902 22.592 90.0292 22.5884L97.8106 22.5813V22.0608C96.0141 21.7721 94.6809 21.487 95.515 20.4069C96.6414 18.9454 97.062 16.7996 97.0585 14.1226" fill="#D9D9D9"/>
<path d="M156.311 0H82.8179V2.47021H156.311V0Z" fill="#D9D9D9"/>
<path d="M48.0891 24.8306H0.00732422V27.3008H48.0891V24.8306Z" fill="#D9D9D9"/>
<path d="M50.8018 39.3845V24.1533H53.4217V37.3385H60.2264V39.3845H50.8018Z" fill="#D9D9D9"/>
<path d="M62.7749 39.3845V24.1533H72.6379V26.2635H65.3948V30.6372H71.9821V32.701H65.3948V37.2708H72.6379V39.381H62.7749V39.3845Z" fill="#D9D9D9"/>
<path d="M76.8689 35.7913L77.5675 33.7239H85.0922L85.7909 35.7913H76.8653H76.8689ZM74.3809 39.3844L79.9665 24.1567H82.8894L88.475 39.3844H85.7053L81.4101 27.2008L77.1149 39.3844H74.3809Z" fill="#D9D9D9"/>
<path d="M98.5266 39.3844L95.3221 32.6617H98.1559L101.514 39.3844H98.5266ZM93.1798 31.3963H95.8639C96.837 31.3963 97.5571 31.161 98.0133 30.6905C98.4696 30.22 98.6977 29.5998 98.6977 28.8298C98.6977 28.0599 98.4731 27.4682 98.0205 27.0155C97.5678 26.5628 96.8477 26.3311 95.8604 26.3311H93.1763V31.3998L93.1798 31.3963ZM90.567 39.3844V24.1567H96.0421C97.247 24.1567 98.2486 24.367 99.0399 24.777C99.8312 25.1905 100.423 25.743 100.808 26.4309C101.193 27.1224 101.385 27.8995 101.385 28.7692C101.385 29.5819 101.196 30.3341 100.819 31.0327C100.441 31.7278 99.8491 32.2874 99.0506 32.708C98.2522 33.1286 97.222 33.3389 95.9744 33.3389H93.1834V39.3879H90.5635L90.567 39.3844Z" fill="#D9D9D9"/>
<path d="M104.091 39.3845V24.1533H106.711L114.061 35.1641V24.1533H116.681V39.3845H114.061L106.711 28.3951V39.3845H104.091Z" fill="#D9D9D9"/>
<path d="M122.37 24.1533H119.75V39.381H122.37V24.1533Z" fill="#D9D9D9"/>
<path d="M125.442 39.3845V24.1533H128.062L135.412 35.1641V24.1533H138.032V39.3845H135.412L128.062 28.3951V39.3845H125.442Z" fill="#D9D9D9"/>
<path d="M147.76 39.6447C146.324 39.6447 145.062 39.3168 143.978 38.6644C142.895 38.0121 142.053 37.1032 141.458 35.934C140.863 34.7649 140.563 33.3996 140.563 31.8348C140.563 30.27 140.87 28.9083 141.48 27.7107C142.089 26.513 142.966 25.5791 144.107 24.9054C145.247 24.2317 146.602 23.8931 148.174 23.8931C149.949 23.8931 151.421 24.3208 152.59 25.1656C153.759 26.014 154.522 27.1902 154.868 28.698H151.92C151.703 27.9424 151.275 27.3578 150.633 26.9372C149.992 26.5166 149.165 26.3062 148.145 26.3062C147.126 26.3062 146.227 26.5272 145.493 26.9657C144.755 27.4077 144.199 28.0457 143.814 28.8763C143.429 29.7104 143.237 30.6977 143.237 31.8491C143.237 33.0004 143.429 33.9807 143.814 34.8076C144.199 35.6346 144.748 36.262 145.461 36.6897C146.174 37.1174 147.008 37.3313 147.971 37.3313C149.396 37.3313 150.473 36.9321 151.196 36.1336C151.924 35.3387 152.355 34.2979 152.483 33.0218H148.537V31.0435H155.125V39.3773H152.726L152.508 37.2885C152.173 37.784 151.788 38.2046 151.35 38.5611C150.911 38.914 150.402 39.1849 149.813 39.3667C149.225 39.5449 148.537 39.6411 147.75 39.6411H147.757L147.76 39.6447Z" fill="#D9D9D9"/>
<path d="M163.38 29.2613V23.9003H164.909L166.527 27.8605L168.224 23.9003H169.642V29.2613H168.559V25.4223L166.894 29.2613H166.071L164.438 25.3902V29.2613H163.383H163.38ZM158.707 24.8306V23.9003H162.57V24.8306H161.227V29.2613H160.05V24.8306H158.707Z" fill="#D9D9D9"/>
</svg>
